<?xml version="1.0" encoding="UTF-8"?>
<svg version="1.1" xmlns="http://www.w3.org/2000/svg" width="1280" height="242">
<path d="M0 0 C1.21251434 -0.00938095 2.42502869 -0.0187619 3.67428589 -0.02842712 C4.97947174 -0.01719315 6.28465759 -0.00595917 7.62939453 0.00561523 C8.99879025 0.00545998 10.3681864 0.00396657 11.73757935 0.00120544 C14.61089472 -0.00017807 17.48371079 0.01235432 20.35693359 0.03515625 C23.99547006 0.0632729 27.63316078 0.06087705 31.27175713 0.04806614 C34.10499964 0.04101632 36.93805588 0.04900671 39.77127457 0.06132317 C41.75105987 0.06789664 43.73087179 0.06374248 45.71066284 0.05921936 C60.31303343 0.20810493 75.02194525 2.37458454 86.88720703 11.50170898 C86.88720703 12.16170898 86.88720703 12.82170898 86.88720703 13.50170898 C87.54720703 13.50170898 88.20720703 13.50170898 88.88720703 13.50170898 C90.10595703 15.11108398 90.10595703 15.11108398 91.38720703 17.25170898 C91.81001953 17.94780273 92.23283203 18.64389648 92.66845703 19.36108398 C93.27173828 20.42069336 93.27173828 20.42069336 93.88720703 21.50170898 C94.25330078 22.14366211 94.61939453 22.78561523 94.99658203 23.44702148 C98.09023163 30.58412539 97.22139319 39.27628852 94.88720703 46.50170898 C91.91757532 53.95685135 87.06449073 58.55317973 80.88720703 63.50170898 C79.87658203 64.32670898 78.86595703 65.15170898 77.82470703 66.00170898 C77.18533203 66.49670898 76.54595703 66.99170898 75.88720703 67.50170898 C76.32033203 68.20038086 76.75345703 68.89905273 77.19970703 69.61889648 C77.75658203 70.52897461 78.31345703 71.43905273 78.88720703 72.37670898 C79.44408203 73.28163086 80.00095703 74.18655273 80.57470703 75.11889648 C81.88720703 77.50170898 81.88720703 77.50170898 81.88720703 79.50170898 C82.54720703 79.50170898 83.20720703 79.50170898 83.88720703 79.50170898 C85.49896696 81.99724063 87.01654335 84.50053522 88.51220703 87.06420898 C92.27216134 93.30462707 95.90089725 98.21439621 101.88720703 102.50170898 C102.87720703 103.30608398 103.86720703 104.11045898 104.88720703 104.93920898 C105.87720703 105.71264648 105.87720703 105.71264648 106.88720703 106.50170898 C108.20720703 105.84170898 109.52720703 105.18170898 110.88720703 104.50170898 C110.88720703 84.04170898 110.88720703 63.58170898 110.88720703 42.50170898 C110.22720703 42.17170898 109.56720703 41.84170898 108.88720703 41.50170898 C108.88720703 40.84170898 108.88720703 40.18170898 108.88720703 39.50170898 C108.22720703 39.50170898 107.56720703 39.50170898 106.88720703 39.50170898 C105.56082791 34.1961925 105.56082791 34.1961925 106.90698242 31.33178711 C109.77200531 28.68399872 112.54958448 28.92717694 116.25830078 28.97045898 C116.97703873 28.96663208 117.69577667 28.96280518 118.43629456 28.9588623 C119.95518393 28.95614263 121.4741201 28.96350801 122.99291992 28.98022461 C125.31356787 29.00160635 127.63110949 28.9804455 129.95166016 28.95483398 C131.42888051 28.95747787 132.90609894 28.96260411 134.38330078 28.97045898 C135.07507919 28.96236206 135.7668576 28.95426514 136.479599 28.94592285 C139.61180677 29.00661582 141.52492377 29.23432799 144.07278442 31.11476135 C146.48954219 34.29410568 146.37424094 36.23944657 146.35375977 40.21044922 C146.35606598 40.87599823 146.35837219 41.54154724 146.36074829 42.2272644 C146.36337297 43.66829391 146.35695652 45.10936223 146.34249687 46.55032158 C146.32057934 48.83336948 146.32433594 51.11509466 146.3349762 53.39820862 C146.35662944 59.0675032 146.33928928 64.73650287 146.31347656 70.40576172 C146.29206005 75.19830174 146.29014778 79.98999253 146.3163929 84.78251839 C146.32073851 87.02812371 146.29612317 89.27224703 146.27085876 91.51768494 C146.27613115 92.8996547 146.28285471 94.28161995 146.29125977 95.66357422 C146.28585678 96.86618393 146.2804538 98.06879364 146.27488708 99.30784607 C147.0581166 103.39317386 148.87063663 104.74954668 151.88720703 107.50170898 C152.32470703 110.68920898 152.32470703 110.68920898 151.88720703 113.50170898 C147.42145178 117.96746423 138.06234158 116.62949351 132.03173828 116.63842773 C130.72269531 116.63262695 130.72269531 116.63262695 129.38720703 116.62670898 C128.07816406 116.63250977 128.07816406 116.63250977 126.74267578 116.63842773 C111.11433835 116.61527464 111.11433835 116.61527464 106.88720703 114.50170898 C106.88720703 113.84170898 106.88720703 113.18170898 106.88720703 112.50170898 C106.34451172 112.77885742 105.80181641 113.05600586 105.24267578 113.34155273 C104.52724609 113.7037793 103.81181641 114.06600586 103.07470703 114.43920898 C102.36701172 114.79885742 101.65931641 115.15850586 100.93017578 115.52905273 C93.11626015 119.24925348 81.98008468 118.61601167 73.88720703 115.87670898 C62.41981866 110.96701875 55.13346504 102.41034611 49.50439453 91.51733398 C47.07272136 86.98290961 44.29008527 82.68564954 41.52392578 78.34936523 C40.14684039 75.95343386 39.33496898 74.19477001 38.88720703 71.50170898 C36.57720703 71.50170898 34.26720703 71.50170898 31.88720703 71.50170898 C31.90667014 75.82595297 31.95851134 80.14825881 32.03979492 84.47167969 C32.06292696 85.94096845 32.07735944 87.4104219 32.08276367 88.87988281 C32.09208982 90.99835243 32.1331483 93.11424964 32.18017578 95.23217773 C32.19588623 96.50472412 32.21159668 97.77727051 32.2277832 99.08837891 C33.0463337 103.32538536 34.74589957 104.66183855 37.88720703 107.50170898 C38.32470703 110.68920898 38.32470703 110.68920898 37.88720703 113.50170898 C33.98370222 117.4052138 28.04142053 116.62966242 22.80126953 116.63452148 C21.81034805 116.63595657 21.81034805 116.63595657 20.79940796 116.63742065 C19.40940251 116.63809742 18.01939381 116.6362785 16.62939453 116.63208008 C14.52515394 116.62674183 12.42112843 116.63203338 10.31689453 116.63842773 C-3.79496272 116.64972693 -3.79496272 116.64972693 -9.11279297 115.50170898 C-11.33318041 112.17112782 -11.81502615 111.36399147 -11.11279297 107.50170898 C-10.15190232 106.42176616 -9.15037929 105.37748042 -8.12510681 104.35845947 C-4.57349795 100.31789308 -4.276989 97.28661814 -4.41577148 92.04370117 C-4.41328903 91.22819794 -4.41080658 90.4126947 -4.4082489 89.57247925 C-4.40733606 86.89687944 -4.44901255 84.22381356 -4.49169922 81.54858398 C-4.50036076 79.68248464 -4.50650246 77.81637205 -4.51023865 75.95025635 C-4.52742419 71.0519309 -4.58149001 66.15466156 -4.64251709 61.25671387 C-4.68619809 57.25189047 -4.7036818 53.24715335 -4.71978855 49.24213791 C-4.73937751 44.46922555 -4.76992847 39.69641144 -4.80419922 34.92358398 C-4.81062502 34.01206322 -4.81705082 33.10054245 -4.82367134 32.16139984 C-4.84462693 29.58821079 -4.87291522 27.01522239 -4.90405273 24.44213867 C-4.90988373 23.67845978 -4.91571472 22.91478088 -4.92172241 22.12796021 C-4.96665699 18.99326133 -5.11416766 16.49758491 -6.11279297 13.50170898 C-7.10279297 13.17170898 -8.09279297 12.84170898 -9.11279297 12.50170898 C-11.27381407 9.26017733 -11.7552685 8.26477997 -11.11279297 4.50170898 C-7.47533204 0.89221578 -5.07531896 0.00079349 0 0 Z M31.88720703 14.50170898 C31.88720703 29.02170898 31.88720703 43.54170898 31.88720703 58.50170898 C49.14363808 60.13094554 49.14363808 60.13094554 55.88720703 55.50170898 C58.70826027 52.00028408 60.43969946 47.9767847 60.88720703 43.50170898 C60.99033203 42.47045898 61.09345703 41.43920898 61.19970703 40.37670898 C60.46257937 31.23632603 56.84346534 23.52751236 49.88720703 17.50170898 C43.45796231 13.5452507 40.26506998 14.50170898 31.88720703 14.50170898 Z " fill="#0F64E7" transform="translate(846.11279296875,61.498291015625)"/>
<path d="M0 0 C5.28677347 3.68844661 8.01232205 7.72021672 9.6875 13.875 C10.41579478 22.72163958 9.43428372 31.21702854 7.6875 39.875 C7.36072266 41.63457031 7.36072266 41.63457031 7.02734375 43.4296875 C2.73754965 65.98040838 -4.24946004 87.62053286 -14.3125 108.25 C-14.6326709 108.91660645 -14.9528418 109.58321289 -15.28271484 110.27001953 C-18.52645022 116.77877678 -22.16255061 122.35148845 -29.3125 124.875 C-37.11215204 125.75560588 -41.9378121 123.12479193 -48.3125 118.875 C-48.3125 118.215 -48.3125 117.555 -48.3125 116.875 C-49.18213379 116.49214844 -49.18213379 116.49214844 -50.06933594 116.1015625 C-52.54265312 114.74915223 -54.20852109 113.23767476 -56.203125 111.25 C-56.91210938 110.54359375 -57.62109375 109.8371875 -58.3515625 109.109375 C-59.08117187 108.37203125 -59.81078125 107.6346875 -60.5625 106.875 C-61.30757812 106.13765625 -62.05265625 105.4003125 -62.8203125 104.640625 C-63.52414063 103.93421875 -64.22796875 103.2278125 -64.953125 102.5 C-65.59797852 101.85289062 -66.24283203 101.20578125 -66.90722656 100.5390625 C-68.3125 98.875 -68.3125 98.875 -68.3125 96.875 C-68.9725 96.875 -69.6325 96.875 -70.3125 96.875 C-73.3125 93.41346154 -73.3125 93.41346154 -73.3125 90.875 C-73.9725 90.875 -74.6325 90.875 -75.3125 90.875 C-85.748123 77.52160836 -89.24687858 63.53808463 -88.3125 46.875 C-87.15906928 39.57319706 -84.13251099 34.38711513 -79.3125 28.875 C-78.57 27.988125 -77.8275 27.10125 -77.0625 26.1875 C-70.86930082 20.97958251 -63.52938967 17.42475947 -55.3125 17.875 C-47.49043648 19.06316155 -42.16281713 22.71711171 -36.3125 27.875 C-34.43794345 25.06316518 -33.85253081 23.44050904 -33.0625 20.25 C-30.91357625 12.82644522 -26.95014622 6.08423906 -20.3125 1.875 C-13.69868358 -1.7561149 -7.21625291 -2.45080288 0 0 Z " fill="#FEBA06" transform="translate(205.3125,55.125)"/>
<path d="M0 0 C2.15622571 0.00097226 4.30888763 -0.04066043 6.46459961 -0.08496094 C7.84284744 -0.09016879 9.22110757 -0.09285612 10.59936523 -0.09277344 C11.84645264 -0.09986328 13.09354004 -0.10695312 14.37841797 -0.11425781 C18.80046879 0.69789641 20.01660352 1.92821465 22.72827148 5.50097656 C23.43894555 8.72733689 23.36802565 11.87664388 23.30834961 15.16894531 C23.31202797 16.6210289 23.31202797 16.6210289 23.31578064 18.10244751 C23.31795059 20.20044674 23.30868417 22.2984821 23.28929138 24.39639282 C23.25926311 27.7170482 23.26025064 31.03641399 23.26940918 34.35717773 C23.28570226 42.60257941 23.24827672 50.84758401 23.21282959 59.09289551 C23.18491064 66.06312853 23.17717214 73.03281507 23.19639587 80.00308228 C23.19701413 83.2745366 23.16781261 86.5448685 23.13757324 89.81616211 C23.13964764 91.8217794 23.14311282 93.82739589 23.14819336 95.83300781 C23.13171249 96.74225006 23.11523163 97.65149231 23.09825134 98.58828735 C23.14182757 103.13453151 23.17126317 104.86014674 26.25671387 108.40991211 C27.48013489 109.44498901 27.48013489 109.44498901 28.72827148 110.50097656 C28.85327148 113.62597656 28.85327148 113.62597656 27.72827148 116.50097656 C21.14206764 121.52729002 13.66862311 121.12307158 5.72827148 120.50097656 C-0.30658319 118.92144134 -4.1262697 116.02329527 -8.27172852 111.50097656 C-10.58453147 111.27798832 -10.58453147 111.27798832 -12.77172852 113.75097656 C-20.20512639 120.00786542 -28.11208076 121.17766244 -37.65063477 120.87988281 C-46.60876989 119.94251592 -53.22814685 116.111144 -59.27172852 109.50097656 C-69.19081909 96.84380369 -69.11089338 80.8463828 -68.06860352 65.51269531 C-66.95920259 57.37306897 -62.90864854 45.67740444 -56.27172852 40.50097656 C-55.61172852 40.50097656 -54.95172852 40.50097656 -54.27172852 40.50097656 C-54.27172852 39.84097656 -54.27172852 39.18097656 -54.27172852 38.50097656 C-46.5912109 31.67384979 -37.81141678 30.03363304 -27.79907227 30.23925781 C-22.17002574 30.82217299 -16.97883888 32.36290299 -12.27172852 35.50097656 C-12.12597524 32.10559804 -12.0375131 28.71102754 -11.95922852 25.31347656 C-11.89638672 23.87391602 -11.89638672 23.87391602 -11.83227539 22.40527344 C-11.6618737 16.45823193 -11.6618737 16.45823193 -14.75610352 11.52050781 C-15.58625977 10.8540625 -16.41641602 10.18761719 -17.27172852 9.50097656 C-17.83422852 6.37597656 -17.83422852 6.37597656 -17.27172852 3.50097656 C-12.71588057 -1.20452873 -6.07799647 -0.0193721 0 0 Z M-32.27172852 45.50097656 C-38.13066082 54.28937502 -35.84906984 68.96563497 -33.95922852 79.00097656 C-32.25484395 87.48120502 -30.30327669 96.0965581 -23.45922852 101.87597656 C-20.39453205 103.75399999 -20.39453205 103.75399999 -17.08422852 103.43847656 C-13.55119919 102.26924911 -13.55119919 102.26924911 -11.27172852 99.50097656 C-10.96057942 96.60399991 -10.82758062 93.92683724 -10.83813477 91.02832031 C-10.83289291 90.19063614 -10.82765106 89.35295197 -10.82225037 88.48988342 C-10.81582447 86.71372585 -10.81717452 84.93752576 -10.82568359 83.16137695 C-10.83412222 80.47234771 -10.80555897 77.78549507 -10.77368164 75.09667969 C-10.72580631 63.3235329 -11.77856083 54.10159765 -19.27172852 44.50097656 C-21.50939901 42.33548899 -22.7055455 41.60005859 -25.77172852 41.06347656 C-29.07943348 41.64232493 -30.15782665 42.94971569 -32.27172852 45.50097656 Z " fill="#0D63E7" transform="translate(1069.271728515625,58.4990234375)"/>
<path d="M0 0 C2.18590685 -0.00218931 4.37131113 -0.02036584 6.55712891 -0.03930664 C7.9464501 -0.04224028 9.33577369 -0.04422527 10.72509766 -0.04516602 C11.98902344 -0.0492749 13.25294922 -0.05338379 14.55517578 -0.05761719 C17.69384766 0.18530273 17.69384766 0.18530273 20.69384766 2.18530273 C21.91703631 5.8548687 21.9250089 9.30851277 22.01025391 13.13452148 C22.031035 13.90713821 22.0518161 14.67975494 22.07322693 15.4757843 C22.13855804 17.94136753 22.19753081 20.40705634 22.25634766 22.87280273 C22.29954852 24.54533965 22.34316332 26.21786593 22.38720703 27.89038086 C22.49422256 31.98858023 22.59553623 36.0868857 22.69384766 40.18530273 C23.68384766 39.85530273 24.67384766 39.52530273 25.69384766 39.18530273 C25.69384766 38.52530273 25.69384766 37.86530273 25.69384766 37.18530273 C35.11516701 31.47144701 44.00752054 28.39488426 55.11962891 30.68530273 C61.04780477 32.43884719 65.70774787 34.96044044 69.0012207 40.30810547 C72.11900183 46.30272915 73.60312077 51.48942076 74.25634766 58.18530273 C74.42384521 59.61314087 74.42384521 59.61314087 74.59472656 61.06982422 C75.15087113 65.86553636 75.64270424 70.66743646 76.12597656 75.47094727 C76.51139831 79.3010678 76.91639729 83.12880831 77.32931519 86.95605469 C77.56532139 89.21406489 77.77560729 91.47353032 77.98510742 93.73413086 C78.13421445 95.14636768 78.28447269 96.55848357 78.43603516 97.97045898 C78.61948486 99.84036499 78.61948486 99.84036499 78.80664062 101.74804688 C79.65195375 105.02299556 80.15923015 106.01677003 82.28027344 108.42919922 C84.69384766 111.18530273 84.69384766 111.18530273 84.56884766 114.49780273 C83.69384766 117.18530273 83.69384766 117.18530273 82.69384766 118.18530273 C75.88569105 119.33483691 69.1470679 119.33486858 62.25634766 119.31030273 C60.6350293 119.31610352 60.6350293 119.31610352 58.98095703 119.32202148 C52.81792552 119.31454661 46.7720456 119.26119942 40.69384766 118.18530273 C38.54190396 114.95738719 38.49298323 113.90129464 38.69384766 110.18530273 C39.65291016 109.78311523 39.65291016 109.78311523 40.63134766 109.37280273 C43.02516452 108.29862521 43.02516452 108.29862521 43.69384766 105.18530273 C44.08081745 99.19861657 43.52529616 93.22489138 42.88916016 87.27514648 C42.80511932 86.46340469 42.72107849 85.6516629 42.63449097 84.81532288 C42.45690191 83.11345332 42.27695361 81.41182841 42.09472656 79.71044922 C41.81925663 77.12663879 41.55494032 74.5418489 41.29150391 71.95678711 C41.11639414 70.2920028 40.94063474 68.62728667 40.76416016 66.96264648 C40.68698761 66.20096664 40.60981506 65.4392868 40.53030396 64.65452576 C39.98697072 59.68467305 38.99898899 55.01282316 37.69384766 50.18530273 C32.12907239 49.032278 32.12907239 49.032278 26.81884766 50.43530273 C24.34563771 52.47206387 22.82387748 54.08138519 22.43988037 57.34141541 C22.43828918 58.17540359 22.436698 59.00939178 22.43505859 59.86865234 C22.42875427 60.81651108 22.42244995 61.76436981 22.41595459 62.74095154 C22.42000305 63.76286087 22.42405151 64.7847702 22.42822266 65.83764648 C22.4263092 66.8893251 22.42439575 67.94100372 22.42242432 69.02455139 C22.42106279 71.2496057 22.42475696 73.47466796 22.43310547 75.69970703 C22.4437946 79.10589465 22.43321438 82.51155356 22.42041016 85.91772461 C22.42173197 88.07853307 22.4242948 90.23934119 22.42822266 92.40014648 C22.42417419 93.42003159 22.42012573 94.43991669 22.41595459 95.4907074 C22.42225891 96.44171829 22.42856323 97.39272919 22.43505859 98.37255859 C22.43664978 99.20734238 22.43824097 100.04212616 22.43988037 100.90220642 C22.72445421 103.46044728 23.305729 105.0234694 24.69384766 107.18530273 C25.68384766 107.84530273 26.67384766 108.50530273 27.69384766 109.18530273 C28.00634766 112.68530273 28.00634766 112.68530273 27.69384766 116.18530273 C23.26410017 120.61505022 13.74978458 119.31443747 7.76220703 119.32202148 C6.72902344 119.3181543 5.69583984 119.31428711 4.63134766 119.31030273 C3.07577148 119.31610352 3.07577148 119.31610352 1.48876953 119.32202148 C-14.18931703 119.30213805 -14.18931703 119.30213805 -17.30615234 116.18530273 C-17.74365234 113.43530273 -17.74365234 113.43530273 -17.30615234 110.18530273 C-16.48383621 109.31461151 -15.66152008 108.44392029 -14.81428528 107.54684448 C-11.45308454 103.66530547 -11.6310363 100.10967558 -11.73852539 95.15063477 C-11.73779526 94.26218369 -11.73706512 93.3737326 -11.73631287 92.45835876 C-11.73978278 89.53597929 -11.77861546 86.61521457 -11.81787109 83.69311523 C-11.82720134 81.66145702 -11.83431645 79.62978752 -11.83930969 77.59811401 C-11.8583627 72.2614819 -11.90744933 66.92553465 -11.96282959 61.58917236 C-12.01405843 56.13953922 -12.03683153 50.68979497 -12.06201172 45.23999023 C-12.11556933 34.55479418 -12.20086195 23.8701055 -12.30615234 13.18530273 C-12.94552734 12.87592773 -13.58490234 12.56655273 -14.24365234 12.24780273 C-16.30615234 11.18530273 -16.30615234 11.18530273 -17.30615234 10.18530273 C-17.54344048 3.65987901 -17.54344048 3.65987901 -16.30615234 1.18530273 C-11.08390228 -0.55544729 -5.46791821 -0.00061534 0 0 Z " fill="#0D63E7" transform="translate(619.30615234375,58.814697265625)"/>
<path d="M0 0 C6.90259389 5.93892007 9.86900859 11.02103698 11.1796875 20.0625 C11.41449701 24.367341 10.73260983 27.47453743 8.34375 31.0703125 C4.84725412 34.96612963 1.41973604 36.82582562 -3.76953125 37.23828125 C-14.96577527 37.33771503 -14.96577527 37.33771503 -19.24609375 33.73046875 C-24.05398957 28.53109032 -26.80599455 22.18748398 -29.6796875 15.79296875 C-31.67876197 11.4989568 -33.30049141 8.3428822 -37.65625 6.0703125 C-42.69467034 5.26011425 -46.49156057 5.49855587 -51.09375 7.7578125 C-56.17034566 12.33913053 -57.85505412 17.3636728 -58.65625 24.0703125 C-59.280512 36.92501359 -58.81988276 49.10077838 -53.4609375 61.01171875 C-52.65625 63.0703125 -52.65625 63.0703125 -52.65625 66.0703125 C-51.99625 66.0703125 -51.33625 66.0703125 -50.65625 66.0703125 C-49.21875 68.00390625 -49.21875 68.00390625 -47.65625 70.5078125 C-45.7032584 73.88037901 -45.7032584 73.88037901 -42.65625 76.0703125 C-42.65625 76.7303125 -42.65625 77.3903125 -42.65625 78.0703125 C-41.975625 78.3384375 -41.295 78.6065625 -40.59375 78.8828125 C-38.51962034 79.72129045 -36.47651478 80.63854682 -34.4609375 81.609375 C-27.60153984 84.53781361 -18.6040679 84.55841484 -11.640625 81.93359375 C-7.05508733 79.25400809 -3.13155509 75.86107761 0.8203125 72.3359375 C2.89727694 70.61045935 4.70156829 69.64159503 7.34375 69.0703125 C9.4296875 69.78515625 9.4296875 69.78515625 11.34375 71.0703125 C13.30138844 76.13021951 12.51725339 81.79403902 10.60546875 86.7421875 C5.06064863 96.97349644 -4.09712503 103.54989268 -15.046875 106.90283203 C-31.62966816 111.43616943 -49.97676911 110.65579246 -65.46875 102.8828125 C-78.84410186 94.70054233 -88.39991635 82.07180218 -92.65625 67.0703125 C-93.70236099 61.42951793 -93.83943948 55.91106422 -93.84375 50.1953125 C-93.85599609 49.34839844 -93.86824219 48.50148437 -93.88085938 47.62890625 C-93.91301033 33.63252289 -89.44010404 20.96374639 -80.65625 10.0703125 C-80.10582031 9.37035156 -79.55539062 8.67039062 -78.98828125 7.94921875 C-61.10675378 -12.30072295 -21.63122653 -15.71444986 0 0 Z " fill="#0D63E7" transform="translate(350.65625,69.9296875)"/>
<path d="M0 0 C2.5625 2.25 2.5625 2.25 4 4 C4 4.66 4 5.32 4 6 C4.66 6 5.32 6 6 6 C12.00489578 19.83869382 13.11937773 35.108384 14.91040039 49.94433594 C15.45375965 54.33909667 16.0610992 58.70999319 16.90234375 63.05859375 C17.10911743 64.12871704 17.10911743 64.12871704 17.32006836 65.22045898 C17.95030277 67.38522742 17.95030277 67.38522742 21 69 C22.18919361 72.14286882 22.1800279 73.5446353 20.9375 76.6875 C17.88002661 80.33674243 14.29908392 80.86902554 9.66796875 81.3359375 C1.57048781 81.42681832 -5.46641509 81.19142755 -11.65625 75.46875 C-15 71.67916667 -15 71.67916667 -15 69 C-15.66644531 69.53109375 -16.33289063 70.0621875 -17.01953125 70.609375 C-28.21581833 79.19058524 -37.75659841 82.51592744 -52 81 C-59.2583369 79.32660821 -63.84809591 75.0509284 -68 69 C-70.8066846 63.26460104 -70.72027511 57.00114627 -69.25 50.875 C-65.37415498 41.96055646 -61.29062983 37.79685437 -52.3203125 33.80859375 C-43.73909354 30.51466976 -35.1669333 28.95439831 -26.03125 28.24609375 C-23.93504246 28.10768393 -23.93504246 28.10768393 -22 27 C-22.25743273 24.47715927 -22.53051317 21.95761856 -22.8125 19.4375 C-22.88275391 18.73302734 -22.95300781 18.02855469 -23.02539062 17.30273438 C-23.59290223 12.37673361 -24.618584 8.37909672 -27 4 C-30.1738916 3.16476537 -32.75013366 3 -36 3 C-36.18175781 3.85722656 -36.36351562 4.71445313 -36.55078125 5.59765625 C-39.93782048 21.0043424 -39.93782048 21.0043424 -43.9375 24.875 C-48.23175322 27.21731994 -52.12962587 27.33019486 -57 27 C-60.75788733 25.81000235 -63.22953486 24.82017257 -65.9375 21.9375 C-67.71127206 17.03354194 -68.00993434 11.96133289 -66.30859375 6.97265625 C-62.69167018 0.05661411 -56.17074146 -4.36708816 -49 -7 C-32.69298844 -11.25087047 -13.46578473 -11.05703444 0 0 Z M-36 44 C-37.85110583 47.70221166 -37.46454795 51.95906917 -37 56 C-34.95686327 59.50252011 -32.90212767 61.77361702 -29 63 C-25.53196379 63.30964609 -22.98423305 63.4376291 -19.77734375 62.01171875 C-17.42828894 59.35289847 -17.65161962 57.28181198 -17.85742188 53.83984375 C-17.95893555 52.68162109 -17.95893555 52.68162109 -18.0625 51.5 C-18.10310547 50.72785156 -18.14371094 49.95570313 -18.18554688 49.16015625 C-18.41565234 44.90947904 -18.41565234 44.90947904 -20.41040039 41.28295898 C-23.03750419 39.16263485 -25.51945119 39.53602536 -28.7734375 39.63671875 C-32.03614855 40.16905582 -33.77002644 41.6306531 -36 44 Z " fill="#1084EC" transform="translate(794,98)"/>
<path d="M0 0 C10.32369081 10.36828559 11.11967026 24.30779711 12.625 38.0625 C12.92988953 40.75641676 13.23884015 43.44978475 13.55258179 46.14268494 C13.74547316 47.80718768 13.93291175 49.4723357 14.11367798 51.13819885 C15.08928464 62.17870226 15.08928464 62.17870226 21 71 C21.48769628 73.85650678 21.49156225 75.26265662 19.875 77.6875 C13.50608685 82.1457392 5.40858582 81.80510428 -2 81 C-7.47998839 79.22519086 -11.93465076 77.02133399 -15 72 C-15 71.01 -15 70.02 -15 69 C-15.78375 69.53625 -16.5675 70.0725 -17.375 70.625 C-28.95614515 78.29100624 -37.76054625 82.23683451 -52 81 C-59.69373657 79.35283147 -64.63628622 75.49886425 -69 69 C-71.06491297 62.8052611 -71.24038924 53.26160069 -69 47 C-62.66674966 37.50012449 -52.70666629 32.92790698 -42 30 C-38.65676834 29.42918054 -35.31578564 29.09817349 -31.9375 28.8125 C-31.07189453 28.73064453 -30.20628906 28.64878906 -29.31445312 28.56445312 C-27.21050226 28.36684448 -25.10535418 28.18204995 -23 28 C-23.28317941 24.95732762 -23.57623614 21.91614859 -23.875 18.875 C-23.95363281 18.0190625 -24.03226562 17.163125 -24.11328125 16.28125 C-24.58220718 11.59199072 -25.27213429 7.42856339 -27 3 C-31.91216813 2.51250174 -31.91216813 2.51250174 -36.140625 4.6484375 C-38.32809974 7.41494967 -38.83380094 9.43004957 -39.5 12.875 C-40.63177412 17.83785977 -41.53405908 21.23697843 -45 25 C-49.32094597 27.11246247 -53.23663557 27.50140678 -58 27 C-61.44093117 25.52332509 -64.3394473 23.6605527 -67 21 C-68.14063725 16.30880771 -68.25636251 12.06207327 -67.125 7.375 C-62.23092765 -0.39793844 -55.33879409 -5.5101936 -46.390625 -7.61328125 C-30.62041372 -10.67971122 -13.06268797 -10.45489182 0 0 Z M-37 44 C-39.18640184 47.32713323 -39.08526027 49.76313685 -38.4375 53.5625 C-37.35916936 57.79829551 -35.81889154 59.70866508 -32 62 C-28.97562661 63.5121867 -26.33758466 63.17263369 -23 63 C-20.82143186 62.04672094 -20.82143186 62.04672094 -19 61 C-18.81765944 51.44791196 -18.81765944 51.44791196 -20 42 C-25.75855474 38.16096351 -32.31893096 38.75152865 -37 44 Z " fill="#0D63E7" transform="translate(437,98)"/>
<path d="M0 0 C5.12191935 5.89674801 7.51984699 11.48954219 7.39453125 19.3046875 C6.54627389 25.09971301 3.30454268 29.13560421 -1.16796875 32.75390625 C-12.21186515 39.94234779 -24.13800159 41.64420475 -37 42 C-36.72285156 42.54269531 -36.44570312 43.08539063 -36.16015625 43.64453125 C-35.61681641 44.71767578 -35.61681641 44.71767578 -35.0625 45.8125 C-34.52302734 46.87404297 -34.52302734 46.87404297 -33.97265625 47.95703125 C-33 50 -33 50 -32 53 C-31.34 53 -30.68 53 -30 53 C-30 53.66 -30 54.32 -30 55 C-23.5722011 57.60586442 -17.49758543 59.75161065 -10.703125 57.10546875 C-9.32746569 56.39504615 -7.96715052 55.65361485 -6.62890625 54.875 C-5 54 -5 54 -3 54 C-3 53.34 -3 52.68 -3 52 C0.11598788 50.15348866 2.38245897 49.61920621 6 50 C8.45973778 52.45973778 8.32301675 53.29299385 8.375 56.6875 C8.23247639 63.28159213 5.99115449 66.74685149 1.625 71.6875 C-8.81179078 80.88181569 -20.81510462 82.89286175 -34.40625 82.375 C-45.62581782 81.63565451 -54.75464738 77.66580707 -63 70 C-71.61642988 60.05796552 -75.58033164 47.83380774 -75.25 34.703125 C-74.26454626 24.04790642 -70.8589034 15.7883551 -65 7 C-64.34 7 -63.68 7 -63 7 C-62.76410156 6.41347656 -62.52820312 5.82695313 -62.28515625 5.22265625 C-58.70648316 -0.96659904 -50.73305706 -4.62186817 -44.06640625 -6.51171875 C-29.4138234 -9.97404929 -12.37196762 -9.32323156 0 0 Z M-36.8125 5.0625 C-41.05034389 10.75331894 -41.27531492 16.05301535 -41.125 22.875 C-41.11597656 23.65875 -41.10695313 24.4425 -41.09765625 25.25 C-41.07428063 27.16680055 -41.03841653 29.08344191 -41 31 C-36.52124828 32.49291724 -33.18899199 30.94016471 -29 29 C-26.0385032 26.54242578 -26.0385032 26.54242578 -24 24 C-23.67 23.67 -23.34 23.34 -23 23 C-22.82073148 20.75473532 -22.73188535 18.50197261 -22.6875 16.25 C-22.65011719 15.01765625 -22.61273437 13.7853125 -22.57421875 12.515625 C-23.07112314 8.41274475 -24.0526302 6.84248119 -27 4 C-31.38781961 2.56398631 -33.0363767 2.29334291 -36.8125 5.0625 Z " fill="#0D63E7" transform="translate(1175,97)"/>
<path d="M0 0 C4.63603791 3.8441442 7.24918267 8.07407349 8.29296875 14.015625 C8.36033086 18.25943817 7.75735272 20.99486438 6.35546875 24.953125 C5.69546875 24.953125 5.03546875 24.953125 4.35546875 24.953125 C4.35546875 25.613125 4.35546875 26.273125 4.35546875 26.953125 C-1.30960257 29.51121022 -6.51642756 29.93870847 -12.64453125 28.953125 C-17.50412471 26.72352154 -19.95761513 23.64779231 -21.94921875 18.734375 C-22.64262478 16.48713209 -23.28192354 14.22218649 -23.85546875 11.94140625 C-24.54785239 9.31926029 -25.1738366 7.22311022 -26.64453125 4.953125 C-29.51090407 3.86420161 -29.51090407 3.86420161 -32.64453125 3.953125 C-35.56082345 5.52343618 -36.50414251 6.59632474 -37.7265625 9.703125 C-39.40311331 17.16243127 -39.91367543 23.41687948 -38.64453125 30.953125 C-38.52980469 31.80777344 -38.41507813 32.66242188 -38.296875 33.54296875 C-37.01055785 41.64801563 -33.39280448 49.03066167 -27.64453125 54.953125 C-22.43402857 58.6386025 -16.8124767 58.82378595 -10.64453125 57.953125 C-8.26153414 56.86308078 -6.69332617 55.6341875 -4.64453125 53.953125 C-3.98453125 53.953125 -3.32453125 53.953125 -2.64453125 53.953125 C-2.64453125 53.293125 -2.64453125 52.633125 -2.64453125 51.953125 C-1.98453125 51.953125 -1.32453125 51.953125 -0.64453125 51.953125 C-0.64453125 51.293125 -0.64453125 50.633125 -0.64453125 49.953125 C2.33759788 48.46206043 5.07156533 48.83371033 8.35546875 48.953125 C10.12247507 50.72013132 9.65238103 53.11592916 9.73046875 55.515625 C9.64299304 62.89857461 7.46550215 66.52645924 2.62890625 71.85546875 C-6.4640573 80.70520488 -18.38350866 82.265625 -30.56079102 82.265625 C-42.75347232 82.05015036 -52.63648609 78.29817804 -61.64453125 69.953125 C-70.94676594 59.50759889 -73.7773271 47.71962842 -73.64453125 33.953125 C-72.60157446 21.42159803 -67.82600956 10.39643742 -58.40234375 1.94140625 C-41.83041691 -11.36635318 -17.62273772 -12.10450672 0 0 Z " fill="#0D63E7" transform="translate(590.64453125,97.046875)"/>
<path d="M0 0 C3.5625 0.3125 3.5625 0.3125 5.2668457 1.52661133 C6.97379284 3.87941296 6.90798192 5.31099435 6.85546875 8.19921875 C6.8409668 9.6059082 6.8409668 9.6059082 6.82617188 11.04101562 C6.80103516 12.01748047 6.77589844 12.99394531 6.75 14 C6.72969727 15.48209961 6.72969727 15.48209961 6.70898438 16.99414062 C6.67362203 19.43414231 6.62427033 21.87304719 6.5625 24.3125 C7.83867187 24.28929688 9.11484375 24.26609375 10.4296875 24.2421875 C12.0989525 24.22343171 13.7682238 24.20523131 15.4375 24.1875 C16.27925781 24.17074219 17.12101562 24.15398437 17.98828125 24.13671875 C19.19677734 24.12705078 19.19677734 24.12705078 20.4296875 24.1171875 C21.17331543 24.10671387 21.91694336 24.09624023 22.68310547 24.08544922 C24.5625 24.3125 24.5625 24.3125 26.5625 26.3125 C26.83241906 29.00089385 26.64987357 31.60391936 26.5625 34.3125 C22.5625 36.3125 22.5625 36.3125 6.5625 36.3125 C6.8925 54.7925 7.2225 73.2725 7.5625 92.3125 C13.2899434 91.73975566 18.89231137 91.17535479 24.5625 90.3125 C26.5625 93.3125 26.5625 93.3125 26.4375 96.6875 C25.12621877 102.11995079 22.98276313 104.36565791 18.375 107.4375 C9.11982691 112.24081768 -0.83822262 114.43855321 -11.16015625 111.55078125 C-17.41175593 108.91028923 -22.39853243 105.53514788 -25.4375 99.3125 C-27.90379156 92.72015107 -27.69339224 86.35559404 -27.6328125 79.37890625 C-27.6299826 78.14583237 -27.62715271 76.91275848 -27.62423706 75.64231873 C-27.6130786 71.71977875 -27.58798151 67.7974705 -27.5625 63.875 C-27.55133396 61.20898772 -27.54333976 58.54297761 -27.53515625 55.87695312 C-27.51315341 49.35539023 -27.47971878 42.83396168 -27.4375 36.3125 C-29.108125 36.126875 -29.108125 36.126875 -30.8125 35.9375 C-34.4375 35.3125 -34.4375 35.3125 -36.4375 33.3125 C-36.8125 30.4375 -36.8125 30.4375 -36.4375 27.3125 C-33.44576789 23.60013169 -30.0423952 22.00800805 -25.75 20.0625 C-17.08250848 15.94076158 -10.39020133 10.63303824 -5.4375 2.3125 C-3.4375 0.3125 -3.4375 0.3125 0 0 Z " fill="#0E63E7" transform="translate(490.4375,66.6875)"/>
<path d="M0 0 C0 0.66 0 1.32 0 2 C0.66 2 1.32 2 2 2 C4.78627403 8.94207259 5.55753322 13.69387875 2.9375 20.9375 C2.628125 21.618125 2.31875 22.29875 2 23 C1.34 23 0.68 23 0 23 C0 23.66 0 24.32 0 25 C-5.05908845 28.1132852 -9.21152582 28.75863306 -15 28 C-19.67549122 26.32388051 -22.51455554 24.32651444 -25 20 C-26.27946095 14.41519965 -26.66756257 9.21387229 -24 4 C-17.57614348 -3.85138019 -8.70399366 -4.80491958 0 0 Z " fill="#0D63E7" transform="translate(985,57)"/>
<path d="M0 0 C1.23137695 -0.00953201 2.46275391 -0.01906403 3.73144531 -0.02888489 C5.07617216 -0.02862349 6.42089903 -0.02768656 7.765625 -0.02612305 C9.14420704 -0.03001002 10.52278789 -0.03434469 11.90136719 -0.03910828 C14.78975305 -0.04656837 17.67801668 -0.04628048 20.56640625 -0.04101562 C24.26889115 -0.0352165 27.97087653 -0.05216305 31.67327881 -0.0753603 C34.51972379 -0.09008619 37.36604809 -0.09097102 40.21252441 -0.08785057 C41.57768749 -0.08836421 42.94285724 -0.09361002 44.3079834 -0.10366249 C46.21570017 -0.11598798 48.12351782 -0.10730631 50.03125 -0.09765625 C51.11696289 -0.09828568 52.20267578 -0.0989151 53.32128906 -0.0995636 C56.015625 0.2746582 56.015625 0.2746582 57.87792969 1.62995911 C59.44066919 3.88911955 59.23302039 5.59344841 59.015625 8.2746582 C58.355625 8.2746582 57.695625 8.2746582 57.015625 8.2746582 C57.015625 8.9346582 57.015625 9.5946582 57.015625 10.2746582 C48.72290591 10.34413662 40.43030821 10.39745821 32.13737011 10.43009472 C28.28670669 10.44575781 24.43624225 10.46700743 20.58569336 10.50097656 C16.87041071 10.53354766 13.15531956 10.55150637 9.43990517 10.55928993 C8.02169085 10.56483754 6.60348713 10.57567064 5.18535423 10.59184837 C3.20074033 10.6135901 1.21593414 10.61488333 -0.76879883 10.61523438 C-1.89909012 10.62189621 -3.02938141 10.62855804 -4.19392395 10.63542175 C-6.984375 10.2746582 -6.984375 10.2746582 -8.88066101 8.91352844 C-9.984375 7.2746582 -9.984375 7.2746582 -9.859375 4.7121582 C-8.09246465 -0.20994919 -4.60353497 0.01953582 0 0 Z " fill="#FEBC0F" transform="translate(52.984375,113.725341796875)"/>
<path d="M0 0 C1.11455566 -0.00953201 2.22911133 -0.01906403 3.37744141 -0.02888489 C4.58577637 -0.02797348 5.79411133 -0.02706207 7.0390625 -0.02612305 C8.27446777 -0.03040817 9.50987305 -0.0346933 10.78271484 -0.03910828 C14.06996781 -0.0463356 17.35703859 -0.04321666 20.64428711 -0.03753662 C22.66206055 -0.03784149 24.67954097 -0.04788355 26.69726562 -0.06152344 C30.56133946 -0.08592263 34.42492151 -0.09018229 38.2890625 -0.08862305 C40.10156494 -0.10243767 40.10156494 -0.10243767 41.95068359 -0.11653137 C43.62251709 -0.10718819 43.62251709 -0.10718819 45.328125 -0.09765625 C46.31248535 -0.09828568 47.2968457 -0.0989151 48.31103516 -0.0995636 C49.47578369 0.08567619 49.47578369 0.08567619 50.6640625 0.2746582 C52.81322035 3.49839498 53.04693053 4.54169494 52.6640625 8.2746582 C50.06088625 10.87783445 48.96925125 10.5322959 45.34399414 10.54931641 C43.67700218 10.56361443 43.67700218 10.56361443 41.97633362 10.57820129 C40.16853676 10.57683418 40.16853676 10.57683418 38.32421875 10.57543945 C37.09118515 10.57972458 35.85815155 10.5840097 34.5877533 10.58842468 C31.30581539 10.59565245 28.02405992 10.59253335 24.74212646 10.58685303 C22.73006944 10.58715767 20.71830686 10.59719268 18.70629883 10.61083984 C14.84963056 10.63526865 10.99345456 10.63949749 7.13671875 10.63793945 C5.93354507 10.6471492 4.7303714 10.65635895 3.49073792 10.66584778 C1.81901772 10.65650459 1.81901772 10.65650459 0.11352539 10.64697266 C-1.35968422 10.64791679 -1.35968422 10.64791679 -2.86265564 10.64888 C-5.3359375 10.2746582 -5.3359375 10.2746582 -7.18824768 8.9115448 C-8.3359375 7.2746582 -8.3359375 7.2746582 -8.1484375 4.7121582 C-6.58846546 0.03224207 -4.53899716 0.0212452 0 0 Z " fill="#FEBB0C" transform="translate(71.3359375,142.725341796875)"/>
<path d="M0 0 C1.22696342 -0.00945648 1.22696342 -0.00945648 2.47871399 -0.019104 C3.3548082 -0.01505554 4.2309024 -0.01100708 5.13354492 -0.00683594 C6.49850349 -0.00970612 6.49850349 -0.00970612 7.89103699 -0.01263428 C9.81505612 -0.01399406 11.73908448 -0.01031206 13.66308594 -0.00195312 C16.59290468 0.00871222 19.52210507 -0.00183626 22.4519043 -0.01464844 C24.32495252 -0.01332608 26.19800035 -0.01076211 28.07104492 -0.00683594 C29.37607719 -0.01290863 29.37607719 -0.01290863 30.70747375 -0.019104 C35.78646978 0.01959358 39.9869093 0.62153905 44.80151367 2.25878906 C45.42651367 4.57128906 45.42651367 4.57128906 45.80151367 7.25878906 C45.14151367 8.24878906 44.48151367 9.23878906 43.80151367 10.25878906 C34.34937287 12.07795629 23.99810036 11.41631038 14.38378906 11.38916016 C12.07830505 11.38370456 9.77300816 11.38919343 7.4675293 11.39550781 C5.99161741 11.39484848 4.51570564 11.39357034 3.03979492 11.39160156 C1.72019775 11.39047363 0.40060059 11.3893457 -0.95898438 11.38818359 C-4.19848633 11.25878906 -4.19848633 11.25878906 -7.19848633 10.25878906 C-7.19848633 9.59878906 -7.19848633 8.93878906 -7.19848633 8.25878906 C-7.85848633 8.25878906 -8.51848633 8.25878906 -9.19848633 8.25878906 C-8.94848633 5.38378906 -8.94848633 5.38378906 -8.19848633 2.25878906 C-5.45629467 0.44680926 -3.24784958 0.00721648 0 0 Z " fill="#FEBE12" transform="translate(69.198486328125,84.7412109375)"/>
<path d="M0 0 C5.28 0 10.56 0 16 0 C16.99 2.31 17.98 4.62 19 7 C20.32 4.69 21.64 2.38 23 0 C24.32 0.33 25.64 0.66 27 1 C27 5.62 27 10.24 27 15 C26.01 15.495 26.01 15.495 25 16 C24.01 15.34 23.02 14.68 22 14 C19.93618425 14.32843384 19.93618425 14.32843384 18 15 C15.66666667 15 13.33333333 15 11 15 C11 11.37 11 7.74 11 4 C10.01 4 9.02 4 8 4 C8 7.63 8 11.26 8 15 C6.35 14.67 4.7 14.34 3 14 C3.33 10.7 3.66 7.4 4 4 C2.35 3.67 0.7 3.34 -1 3 C-0.67 2.01 -0.34 1.02 0 0 Z " fill="#4284EB" transform="translate(1187,163)"/>
<path d="M0 0 C2.5625 2.25 2.5625 2.25 4 4 C4 4.66 4 5.32 4 6 C4.66 6 5.32 6 6 6 C6.99 8.64 7.98 11.28 9 14 C8.34 14.66 7.68 15.32 7 16 C6.62488281 15.18015625 6.24976563 14.3603125 5.86328125 13.515625 C5.35152344 12.43796875 4.83976563 11.3603125 4.3125 10.25 C3.81363281 9.18265625 3.31476562 8.1153125 2.80078125 7.015625 C-0.34151384 1.75347356 -4.43006496 -0.43537065 -10 -2.6875 C-11.5159375 -3.31205078 -11.5159375 -3.31205078 -13.0625 -3.94921875 C-24.22227517 -7.94121279 -39.08336334 -7.49066465 -50 -3 C-52.40447338 -1.75998508 -54.68224262 -0.40031175 -57 1 C-57.99 1 -58.98 1 -60 1 C-58.78315475 -2.65053576 -58.02172387 -2.86614049 -54.6875 -4.5625 C-38.06698883 -12.37837777 -14.46878475 -11.88061851 0 0 Z " fill="#3B9BEE" transform="translate(794,98)"/>
<path d="M0 0 C3.3 0 6.6 0 10 0 C9.34 0.66 8.68 1.32 8 2 C6.02 2 4.04 2 2 2 C2 16.52 2 31.04 2 46 C8.27 46 14.54 46 21 46 C21 46.33 21 46.66 21 47 C16.74235222 48.03965818 12.60748793 48.15018779 8.25 48.125 C7.56550781 48.12886719 6.88101563 48.13273437 6.17578125 48.13671875 C1.12672061 48.12672061 1.12672061 48.12672061 0 47 C-0.09304018 45.52645652 -0.11746265 44.04849409 -0.11352539 42.57202148 C-0.11344986 41.63112167 -0.11337433 40.69022186 -0.11329651 39.72080994 C-0.10813522 38.69790359 -0.10297394 37.67499725 -0.09765625 36.62109375 C-0.0962413 35.57929459 -0.09482635 34.53749542 -0.09336853 33.46412659 C-0.0877508 30.12188906 -0.0751953 26.77971743 -0.0625 23.4375 C-0.05748728 21.17773534 -0.05292398 18.91796963 -0.04882812 16.65820312 C-0.03777561 11.10544318 -0.0204991 5.55273278 0 0 Z " fill="#196BE7" transform="translate(876,74)"/>
<path d="M0 0 C-3 1 -3 1 -4.76171875 0.29296875 C-5.39722656 -0.07183594 -6.03273438 -0.43664062 -6.6875 -0.8125 C-13.31636697 -4.61414834 -20.26657915 -5.36919258 -27.75 -5.3125 C-28.53568359 -5.30686035 -29.32136719 -5.3012207 -30.13085938 -5.29541016 C-40.41099385 -5.08281933 -48.479315 -2.92667912 -57.0390625 2.890625 C-57.68617188 3.25671875 -58.33328125 3.6228125 -59 4 C-59.66 3.67 -60.32 3.34 -61 3 C-45.33039266 -11.71704762 -17.33242908 -12.57450738 0 0 Z " fill="#367CE8" transform="translate(435,97)"/>
<path d="M0 0 C0.66 0 1.32 0 2 0 C1.7098066 1.33365476 1.41774108 2.66690215 1.125 4 C0.96257812 4.7425 0.80015625 5.485 0.6328125 6.25 C0.13754386 8.40227855 -0.43773665 10.53617694 -1.04296875 12.66015625 C-2.26914439 17.57521113 -2.42327302 22.38870095 -2.4375 27.4375 C-2.44136719 28.39237305 -2.44523437 29.34724609 -2.44921875 30.33105469 C-2.32113466 38.33897859 -0.72140973 45.33211746 1.90625 52.859375 C3 56 3 56 3 58 C2.34 58 1.68 58 1 58 C0.17803394 55.98299841 -0.63213217 53.96118631 -1.4375 51.9375 C-1.88996094 50.81214844 -2.34242188 49.68679687 -2.80859375 48.52734375 C-5.08333467 41.792619 -5.18219737 35.15629399 -5.1875 28.125 C-5.19974609 27.27808594 -5.21199219 26.43117188 -5.22460938 25.55859375 C-5.24204092 17.97006058 -3.87502971 11.096676 -1.375 3.9375 C-1.11460937 3.18339844 -0.85421875 2.42929688 -0.5859375 1.65234375 C-0.39257812 1.10707031 -0.19921875 0.56179687 0 0 Z " fill="#176AE8" transform="translate(262,92)"/>
<path d="M0 0 C1.875 0.1875 1.875 0.1875 4 1 C5.82477489 4.5919044 6.23996279 7.52332999 6.1953125 11.51953125 C6.18886719 12.54111328 6.18242188 13.56269531 6.17578125 14.61523438 C6.15902344 15.67033203 6.14226562 16.72542969 6.125 17.8125 C6.11597656 18.88693359 6.10695313 19.96136719 6.09765625 21.06835938 C6.07415306 23.71246854 6.04129575 26.35611872 6 29 C3.56568301 28.03578698 1.15447381 27.07206965 -1.21875 25.96484375 C-8.08085838 22.87454494 -14.52262143 22.23440058 -22 22 C-19.5600981 19.5600981 -18.85505859 19.70342591 -15.5 19.6875 C-8.82250449 19.81349048 -2.581441 21.27903934 3 25 C3.08724706 21.5834948 3.14047325 18.16727687 3.1875 14.75 C3.21263672 13.78191406 3.23777344 12.81382813 3.26367188 11.81640625 C3.27333984 10.88183594 3.28300781 9.94726562 3.29296875 8.984375 C3.3086792 8.12553711 3.32438965 7.26669922 3.34057617 6.38183594 C2.93095949 3.51716184 1.886136 2.14936836 0 0 Z " fill="#186AE8" transform="translate(1054,69)"/>
<path d="M0 0 C0.66 0 1.32 0 2 0 C2.91851411 4.70439365 3.1748759 9.28765622 3.203125 14.06640625 C3.20882507 14.82291977 3.21452515 15.57943329 3.22039795 16.35887146 C3.22979713 17.94976421 3.23636157 19.54067599 3.24023438 21.1315918 C3.24998503 23.55877381 3.28107318 25.98512396 3.3125 28.41210938 C3.31902706 29.96353668 3.32427869 31.51496998 3.328125 33.06640625 C3.3404718 33.78735977 3.3528186 34.50831329 3.36553955 35.25111389 C3.34598914 39.68731786 2.74949677 42.48823063 0 46 C-4.1795645 48.78637633 -6.14668677 47.79562512 -11 47 C-10.67 46.34 -10.34 45.68 -10 45 C-8.63875 45.0928125 -8.63875 45.0928125 -7.25 45.1875 C-4.10644001 45.1882056 -4.10644001 45.1882056 -1.82128906 44.08081055 C1.16920041 40.66419637 0.49074768 36.89984983 0.390625 32.51953125 C0.38496521 31.59154221 0.37930542 30.66355316 0.37347412 29.70744324 C0.35107376 26.74193854 0.30087073 23.7776398 0.25 20.8125 C0.22993973 18.80275182 0.21168813 16.79298471 0.1953125 14.78320312 C0.15119696 9.85500371 0.08214424 4.92770635 0 0 Z " fill="#1767E8" transform="translate(1057,116)"/>
<path d="M0 0 C2.04888001 4.09776002 2.45454695 7.23597907 2.6875 11.6875 C2.75807617 12.72100586 2.75807617 12.72100586 2.83007812 13.77539062 C2.9344038 15.51472198 2.97267894 17.25775692 3 19 C1.19283968 20.80716032 -1.68332416 20.2602904 -4.125 20.375 C-13.55478578 20.98306193 -23.27988958 22.1921635 -32 26 C-32 25.34 -32 24.68 -32 24 C-21.44028527 19.03295286 -11.51629199 17.81477462 0 17 C0 11.39 0 5.78 0 0 Z " fill="#2772E9" transform="translate(414,109)"/>
<path d="M0 0 C-0.66 0.33 -1.32 0.66 -2 1 C-3.67299959 0.34938905 -5.33859237 -0.32033324 -7 -1 C-8.9924325 -1.37593066 -10.9918674 -1.71979545 -13 -2 C-13 -2.66 -13 -3.32 -13 -4 C-32.08585784 -3.44858777 -32.08585784 -3.44858777 -51 -1 C-50 -3 -50 -3 -47.375 -4.0625 C-32.14403468 -8.2933237 -13.88453696 -7.71363164 0 0 Z " fill="#3D84E9" transform="translate(344,67)"/>
<path d="M0 0 C3.19796807 0.64539492 5.62724697 1.79615638 8.4375 3.4375 C19.33784769 9.59779421 31.16123412 10.64925279 43.3125 7.5625 C44.25738281 7.29566406 45.20226563 7.02882812 46.17578125 6.75390625 C49.10229061 5.97269421 52.00708843 5.45534696 55 5 C49.01122553 10.98877447 38.55295281 11.43906567 30.5 11.5 C19.13795356 11.36940177 8.38203103 9.23009089 0 1 C0 0.67 0 0.34 0 0 Z " fill="#1F70E7" transform="translate(1115,168)"/>
<path d="M0 0 C0 0.66 0 1.32 0 2 C-3.24528854 1.41562112 -6.16669673 0.58542046 -9.25 -0.5625 C-20.54890976 -3.98590102 -32.93629116 -2.58131616 -44 1 C-43.67 0.01 -43.34 -0.98 -43 -2 C-29.66683398 -7.16739927 -12.67730955 -6.8445568 0 0 Z " fill="#347AEA" transform="translate(586,94)"/>
<path d="M0 0 C3.09612802 2.25172947 5.58126174 4.62502984 8 7.5625 C11.26339916 11.38780894 14.86143522 14.63276199 18.6875 17.875 C19.24630859 18.35138916 19.80511719 18.82777832 20.38085938 19.31860352 C25.59983015 23.67425652 28.41997089 25.27347889 35.25 25.125 C36.86648437 25.09792969 36.86648437 25.09792969 38.515625 25.0703125 C39.74539062 25.03550781 39.74539062 25.03550781 41 25 C38.63194089 27.74694857 38.17699174 27.97900098 34.3125 28.4375 C28.36107109 28.22887057 23.83146015 25.22097343 19 22 C19 21.34 19 20.68 19 20 C18.41573242 19.73952881 17.83146484 19.47905762 17.22949219 19.21069336 C13.28554161 17.06898827 10.39431586 13.72167558 7.25 10.5625 C6.55261719 9.88123047 5.85523438 9.19996094 5.13671875 8.49804688 C4.47800781 7.83998047 3.81929687 7.18191406 3.140625 6.50390625 C2.53766602 5.90392822 1.93470703 5.3039502 1.31347656 4.68579102 C0 3 0 3 0 0 Z " fill="#FDBE1F" transform="translate(138,152)"/>
<path d="M0 0 C1.01151878 -0.00786278 1.01151878 -0.00786278 2.04347229 -0.0158844 C3.46817652 -0.02230064 4.89293376 -0.02097264 6.31762695 -0.01245117 C8.49331447 -0.00394765 10.66636928 -0.03268967 12.84179688 -0.06445312 C14.2278638 -0.06606552 15.61393536 -0.06548687 17 -0.0625 C18.25868896 -0.06435303 19.51737793 -0.06620605 20.81420898 -0.06811523 C24.57803718 0.51252188 25.74151385 1.49606325 28.06640625 4.43359375 C25.06640625 4.43359375 25.06640625 4.43359375 23.06640625 3.43359375 C20.58540891 3.34709924 18.13295697 3.31794321 15.65234375 3.3359375 C14.55788437 3.33805992 14.55788437 3.33805992 13.4413147 3.34022522 C11.1079704 3.34582844 8.77472161 3.3583814 6.44140625 3.37109375 C4.86067847 3.37610834 3.27994918 3.38067132 1.69921875 3.38476562 C-2.17842229 3.39579891 -6.05599182 3.41306564 -9.93359375 3.43359375 C-7.22300656 -0.30936173 -4.39709707 0.03408602 0 0 Z " fill="#3981E6" transform="translate(1062.93359375,58.56640625)"/>
<path d="M0 0 C0.66 0 1.32 0 2 0 C2.495 7.92 2.495 7.92 3 16 C1.081875 16.19916016 1.081875 16.19916016 -0.875 16.40234375 C-2.58333777 16.5806867 -4.29167085 16.75907451 -6 16.9375 C-7.25876953 17.06801758 -7.25876953 17.06801758 -8.54296875 17.20117188 C-13.70406292 17.74128638 -18.85299802 18.33875322 -24 19 C-24 18.34 -24 17.68 -24 17 C-16.9860609 15.25201204 -10.14872109 13.70744073 -2.92578125 13.2109375 C-0.91833321 13.10381973 -0.91833321 13.10381973 1 12 C0.67 8.04 0.34 4.08 0 0 Z " fill="#2E94EE" transform="translate(771,113)"/>
<path d="M0 0 C2.04891207 1.88136085 3.40723227 3.68791781 5 6 C2.68221254 5.1308297 0.45468005 4.28095796 -1.65625 2.9765625 C-7.84540454 -0.72119509 -13.93293851 -0.89631024 -21 0 C-23.59528741 0.85043316 -25.8877012 1.83981066 -28.29296875 3.125 C-30 4 -30 4 -32 4 C-31 1 -31 1 -29.29296875 0.0859375 C-28.25076172 -0.26597656 -28.25076172 -0.26597656 -27.1875 -0.625 C-26.15689453 -0.98464844 -26.15689453 -0.98464844 -25.10546875 -1.3515625 C-16.76332255 -3.92075781 -7.89035456 -4.24028897 0 0 Z " fill="#2E77E9" transform="translate(681,92)"/>
<path d="M0 0 C-3.14219999 1.0474 -5.57833531 0.96827349 -8.85229492 0.83227539 C-16.65129263 0.54993978 -22.8412131 0.61439414 -29 6 C-31.18612233 8.2135632 -33.15814248 10.49362917 -35 13 C-35.33 12.01 -35.66 11.02 -36 10 C-32.36810483 3.6009466 -25.07486418 0.26289065 -18.5 -2.4375 C-12.18182895 -3.45292035 -5.78314756 -2.89157378 0 0 Z " fill="#FBC32C" transform="translate(160,76)"/>
<path d="M0 0 C5.22370472 1.07231475 10.02695143 3.00280845 14.25 6.3125 C14.745 7.7975 14.745 7.7975 15.25 9.3125 C11.26564656 7.77016963 7.40131853 6.0204215 3.53125 4.21484375 C-1.83597105 2.09185049 -7.36365455 2.0243722 -13.0625 1.75 C-13.89845703 1.70681641 -14.73441406 1.66363281 -15.59570312 1.61914062 C-17.64696935 1.51364693 -19.6984648 1.41262685 -21.75 1.3125 C-15.7439288 -2.69154747 -6.91872754 -1.02608247 0 0 Z " fill="#3B80EA" transform="translate(1158.75,89.6875)"/>
<path d="M0 0 C2.53087096 -0.27976011 4.81401909 -0.37241371 7.34375 -0.328125 C8.06864624 -0.32625183 8.79354248 -0.32437866 9.54040527 -0.32244873 C11.07369584 -0.31572341 12.60696911 -0.30179926 14.14013672 -0.28125 C16.49072157 -0.25012287 18.84063584 -0.2402827 21.19140625 -0.234375 C22.6796957 -0.22520385 24.16797831 -0.21482772 25.65625 -0.203125 C26.71410706 -0.19675018 26.71410706 -0.19675018 27.79333496 -0.19024658 C32.76557815 -0.11721092 32.76557815 -0.11721092 35 1 C35 1.66 35 2.32 35 3 C22.79 3 10.58 3 -2 3 C-1.34 2.01 -0.68 1.02 0 0 Z " fill="#2F79E9" transform="translate(955,91)"/>
<path d="M0 0 C2.19496444 -0.00971331 4.38899533 -0.04073972 6.58374023 -0.07226562 C7.97761488 -0.07879511 9.37149622 -0.0840458 10.76538086 -0.08789062 C12.67081665 -0.10190918 12.67081665 -0.10190918 14.61474609 -0.11621094 C17.76928711 0.24023438 17.76928711 0.24023438 19.70703125 1.76074219 C20.05757568 2.24897461 20.40812012 2.73720703 20.76928711 3.24023438 C20.10928711 3.57023437 19.44928711 3.90023437 18.76928711 4.24023438 C17.77928711 3.91023438 16.78928711 3.58023438 15.76928711 3.24023438 C13.41248498 3.1562628 11.0533463 3.1329525 8.69506836 3.14257812 C8.01123581 3.14399307 7.32740326 3.14540802 6.62284851 3.14686584 C4.44244989 3.15245561 2.2621546 3.16500616 0.08178711 3.17773438 C-1.39802911 3.1827507 -2.87784695 3.18731338 -4.35766602 3.19140625 C-7.98204846 3.20242166 -11.60637059 3.21967925 -15.23071289 3.24023438 C-15.23071289 2.58023438 -15.23071289 1.92023437 -15.23071289 1.24023438 C-10.83079333 -0.95972541 -4.89118868 0.01313512 0 0 Z " fill="#3A7EEA" transform="translate(619.230712890625,58.759765625)"/>
<path d="M0 0 C0 0.66 0 1.32 0 2 C-0.71285156 2.37511719 -1.42570312 2.75023438 -2.16015625 3.13671875 C-12.95876888 8.90663694 -19.44188577 14.21387023 -27 24 C-27 18.62348958 -23.05428988 14.87172532 -19.5625 11.0625 C-15.09992131 6.68428008 -6.55355063 0 0 0 Z " fill="#2271E8" transform="translate(293,65)"/>
<path d="M0 0 C2.84794032 2.11561281 4.98275058 3.97595536 7.0625 6.875 C12.73370584 13.93725632 23.76124499 16.90135321 32 20 C32 20.33 32 20.66 32 21 C18.51544043 20.48136309 9.12053696 12.12053696 0 3 C0 2.01 0 1.02 0 0 Z " fill="#1B6CE7" transform="translate(269,156)"/>
<path d="M0 0 C0.66 0 1.32 0 2 0 C2.7425 0.928125 3.485 1.85625 4.25 2.8125 C7.84295497 7.2931262 12.3291811 9.34060245 18 10 C23.89831412 10.47325025 28.47066318 9.80710526 33.95703125 7.55859375 C36.34550371 6.90553149 37.68364365 7.21400043 40 8 C31.09440362 12.07112977 21.92058435 13.95170436 12.28515625 11.234375 C8.06708953 9.46573471 4.25151801 7.25151801 1 4 C0.1875 1.75 0.1875 1.75 0 0 Z " fill="#1D6DE7" transform="translate(467,167)"/>
<path d="M0 0 C3.03674826 1.51837413 3.62709489 4.18427006 5 7.1875 C5.87144569 9.17201523 5.87144569 9.17201523 8 10 C4.23866661 11.00302224 0.88566706 11 -3 11 C-3 8.03 -3 5.06 -3 2 C-2.01 2 -1.02 2 0 2 C0 1.34 0 0.68 0 0 Z " fill="#468CEE" transform="translate(1201,167)"/>
<path d="M0 0 C0.7425 1.0209375 0.7425 1.0209375 1.5 2.0625 C7.97659884 9.67250363 15.05516412 15.32061388 25.234375 16.31640625 C26.39453125 16.39761719 27.5546875 16.47882813 28.75 16.5625 C29.92046875 16.64628906 31.0909375 16.73007813 32.296875 16.81640625 C33.63492187 16.90728516 33.63492187 16.90728516 35 17 C35 17.33 35 17.66 35 18 C23.46851067 18.55351149 14.62968948 18.14628969 5.5 10.4375 C3.22975935 8.34869252 1.73259645 6.59889468 0 4 C0 2.68 0 1.36 0 0 Z " fill="#1F6DE7" transform="translate(1008,161)"/>
<path d="M0 0 C0.66 0.66 1.32 1.32 2 2 C0.89591797 2.02126953 0.89591797 2.02126953 -0.23046875 2.04296875 C-4.78342833 2.26550442 -8.13848871 2.50032345 -12.125 4.8125 C-14.95901663 9.63032827 -14.90344972 14.4966341 -15 20 C-17.49005677 17.50994323 -17.29703766 16.62529268 -17.3125 13.1875 C-17.21534927 8.97358693 -16.86970308 6.2655242 -14 3 C-9.86128707 -0.53007867 -5.2365196 -0.79216505 0 0 Z " fill="#2790EC" transform="translate(772,136)"/>
<path d="M0 0 C1.12921875 0.11794922 1.12921875 0.11794922 2.28125 0.23828125 C4.62887164 0.71359197 6.41514781 1.52661639 8.5 2.6875 C8.5 3.3475 8.5 4.0075 8.5 4.6875 C9.16 4.6875 9.82 4.6875 10.5 4.6875 C11.85439668 7.39629335 11.56501451 9.69683268 11.5 12.6875 C9.5 9.6875 9.5 9.6875 8.125 7.125 C6.33630578 4.44195868 5.42882264 3.86218966 2.5 2.6875 C-2.30714201 1.93583779 -5.66906492 2.21915477 -9.9375 4.625 C-11.2059375 5.6459375 -11.2059375 5.6459375 -12.5 6.6875 C-13.49 7.1825 -13.49 7.1825 -14.5 7.6875 C-14.3125 5.875 -14.3125 5.875 -13.5 3.6875 C-9.08914002 0.46876434 -5.38410328 -0.61769678 0 0 Z " fill="#317AE9" transform="translate(976.5,54.3125)"/>
<path d="M0 0 C0.99 0.66 1.98 1.32 3 2 C2.38253906 1.95359375 1.76507813 1.9071875 1.12890625 1.859375 C-8.21002973 1.4613686 -14.69691882 4.26644087 -21.55859375 10.5390625 C-23.23607764 12.23927652 -24.69235317 14.00006955 -26 16 C-25.67810558 10.68874211 -22.8400405 7.40440566 -19 4 C-13.13383824 0.1713219 -6.9340365 -1.07640278 0 0 Z " fill="#F3BC31" transform="translate(202,54)"/>
<path d="M0 0 C2.75691861 1.30301557 5.1254919 2.79478455 7.59375 4.57421875 C12.44159099 7.63559885 16.88005387 7.77574163 22.5 7.8125 C23.4178125 7.83763672 24.335625 7.86277344 25.28125 7.88867188 C27.52126551 7.94700561 29.75935187 7.98367528 32 8 C26.73505092 11.50996605 20.12497056 10.50204677 14 10 C7.51642601 8.41512636 3.79479438 5.38615976 0 0 Z " fill="#218CEC" transform="translate(728,169)"/>
<path d="M0 0 C6.31803372 1.29600692 10.69371586 5.40663025 15 10 C15 10.66 15 11.32 15 12 C15.66 12 16.32 12 17 12 C17.99 14.64 18.98 17.28 20 20 C19.34 20.66 18.68 21.32 18 22 C17.62488281 21.18015625 17.24976563 20.3603125 16.86328125 19.515625 C16.35152344 18.43796875 15.83976563 17.3603125 15.3125 16.25 C14.81363281 15.18265625 14.31476562 14.1153125 13.80078125 13.015625 C10.93464189 8.21592958 7.26505803 5.87196455 2.1875 3.75 C1.39730469 3.41484375 0.60710938 3.0796875 -0.20703125 2.734375 C-0.79871094 2.49203125 -1.39039063 2.2496875 -2 2 C-1.34 1.34 -0.68 0.68 0 0 Z " fill="#1B90ED" transform="translate(783,92)"/>
<path d="M0 0 C0.66 0.33 1.32 0.66 2 1 C2.25786805 9.07986556 2.15897382 17.15039764 0 25 C-0.66 25.33 -1.32 25.66 -2 26 C-1.49354466 17.31482976 -0.97704701 8.64790541 0 0 Z " fill="#FEC020" transform="translate(213,70)"/>
<path d="M0 0 C6.67749551 0.12599048 12.918559 1.59153934 18.5 5.3125 C18.17 6.3025 17.84 7.2925 17.5 8.3125 C14.9609375 6.79882812 14.9609375 6.79882812 12.421875 5.28515625 C8.3497799 3.22427885 4.26302761 3.06591193 -0.25 2.75 C-1.42046875 2.66621094 -2.5909375 2.58242187 -3.796875 2.49609375 C-4.68890625 2.43550781 -5.5809375 2.37492187 -6.5 2.3125 C-4.0600981 -0.1274019 -3.35505859 0.01592591 0 0 Z " fill="#3079E8" transform="translate(1038.5,88.6875)"/>
<path d="M0 0 C1.65 0.33 3.3 0.66 5 1 C6.31626692 4.61973402 7 7.09567131 7 11 C7.99 11.33 8.98 11.66 10 12 C9.01 12.66 8.02 13.32 7 14 C5.68 11.03 4.36 8.06 3 5 C1.68 5.33 0.36 5.66 -1 6 C-0.67 4.02 -0.34 2.04 0 0 Z " fill="#2A77E9" transform="translate(1199,163)"/>
<path d="M0 0 C0.66 0 1.32 0 2 0 C1.7098066 1.33365476 1.41774108 2.66690215 1.125 4 C0.94324219 4.83015625 0.76148438 5.6603125 0.57421875 6.515625 C0.09037645 8.60898353 -0.47680062 10.68282571 -1.0625 12.75 C-2.51597223 18.38077431 -2.66498089 24.2165122 -3 30 C-3.33 30 -3.66 30 -4 30 C-4.76595745 9.46808511 -4.76595745 9.46808511 0 0 Z " fill="#2571E7" transform="translate(262,92)"/>
<path d="M0 0 C2 2 2 2 2.1953125 4.3828125 C2.17210937 5.28773438 2.14890625 6.19265625 2.125 7.125 C2.10695313 8.03507813 2.08890625 8.94515625 2.0703125 9.8828125 C2.04710937 10.58148438 2.02390625 11.28015625 2 12 C1.01 12.495 1.01 12.495 0 13 C0 9.7 0 6.4 0 3 C-4.28266193 3.48666613 -6.68171848 4.27426875 -10 7 C-10.66 7 -11.32 7 -12 7 C-11.67 6.01 -11.34 5.02 -11 4 C-10.34 4 -9.68 4 -9 4 C-9 3.34 -9 2.68 -9 2 C-5.88401212 0.15348866 -3.61754103 -0.38079379 0 0 Z " fill="#2170E8" transform="translate(1181,147)"/>
<path d="M0 0 C0.66 0 1.32 0 2 0 C2.66 0.99 3.32 1.98 4 3 C7.61867559 4.2062252 10.92506251 4.10816918 14.6875 4.0625 C15.38939453 4.05798828 16.09128906 4.05347656 16.81445312 4.04882812 C18.54300538 4.03706927 20.27151365 4.01913454 22 4 C21.67 4.66 21.34 5.32 21 6 C15.75799794 7.74733402 8.95614489 8.4590181 3.87890625 5.953125 C2.25 4.625 2.25 4.625 0 2 C0 1.34 0 0.68 0 0 Z " fill="#1E6BE8" transform="translate(572,119)"/>
<path d="M0 0 C2 2 2 2 2 6 C10.58 6.66 19.16 7.32 28 8 C28 8.33 28 8.66 28 9 C24.06251542 9.02898816 20.12505821 9.04679464 16.1875 9.0625 C15.06794922 9.07087891 13.94839844 9.07925781 12.79492188 9.08789062 C11.18520508 9.09272461 11.18520508 9.09272461 9.54296875 9.09765625 C8.55321045 9.10289307 7.56345215 9.10812988 6.54370117 9.11352539 C4 9 4 9 1 8 C1 7.34 1 6.68 1 6 C0.34 6 -0.32 6 -1 6 C-0.67 4.02 -0.34 2.04 0 0 Z " fill="#FEA70F" transform="translate(61,87)"/>
<path d="M0 0 C-3.94311334 2.52274456 -8.20820789 2.66554839 -12.75 3.125 C-13.54277344 3.21136719 -14.33554688 3.29773438 -15.15234375 3.38671875 C-17.10083141 3.59800054 -19.05032976 3.79992467 -21 4 C-21 3.01 -21 2.02 -21 1 C-18.62625224 0.63457573 -16.25173828 0.28243861 -13.875 -0.0625 C-12.87726563 -0.2181543 -12.87726563 -0.2181543 -11.859375 -0.37695312 C-7.65885188 -0.97408631 -4.13930366 -0.92199443 0 0 Z " fill="#2B76E8" transform="translate(1157,136)"/>
<path d="M0 0 C3.98121034 -0.20243442 7.15238093 -0.2295635 11 0.8125 C13.56052599 3.6130753 13.29811565 4.95715839 13.3125 8.6875 C13.23205586 10.45956945 13.13513292 12.2312602 13 14 C9.99382731 10.99382731 10.40414684 8.17618402 10 4 C9.36191406 3.87882813 8.72382813 3.75765625 8.06640625 3.6328125 C7.24011719 3.46523437 6.41382813 3.29765625 5.5625 3.125 C4.73878906 2.96257812 3.91507812 2.80015625 3.06640625 2.6328125 C2.38449219 2.42398438 1.70257813 2.21515625 1 2 C0.67 1.34 0.34 0.68 0 0 Z " fill="#2672E8" transform="translate(406,136)"/>
<path d="M0 0 C0.33 0 0.66 0 1 0 C1.3125 2.25 1.3125 2.25 1 5 C-1.17688163 7.59821356 -2.84840443 8.81848756 -6.23046875 9.3515625 C-12.3373094 9.57073133 -12.3373094 9.57073133 -14.7734375 7.47265625 C-15.17820312 6.98667969 -15.58296875 6.50070313 -16 6 C-15.26394531 6.02320313 -14.52789063 6.04640625 -13.76953125 6.0703125 C-12.30580078 6.09738281 -12.30580078 6.09738281 -10.8125 6.125 C-9.36810547 6.15980469 -9.36810547 6.15980469 -7.89453125 6.1953125 C-4.87187222 5.9913544 -2.73230015 5.26874632 0 4 C0 2.68 0 1.36 0 0 Z " fill="#218DEC" transform="translate(777,154)"/>
<path d="M0 0 C0.73283203 -0.01611328 1.46566406 -0.03222656 2.22070312 -0.04882812 C4.34765625 -0.05078125 4.34765625 -0.05078125 7.9375 0.3125 C8.5975 1.3025 9.2575 2.2925 9.9375 3.3125 C3.0075 2.9825 -3.9225 2.6525 -11.0625 2.3125 C-7.31970213 -0.18269858 -4.33249036 -0.01915336 0 0 Z " fill="#327AE9" transform="translate(507.0625,90.6875)"/>
<path d="M0 0 C0.66 0.33 1.32 0.66 2 1 C-7.17103399 12.21954674 -7.17103399 12.21954674 -14 13 C-14 12.34 -14 11.68 -14 11 C-11.953125 9.4140625 -11.953125 9.4140625 -9.25 7.625 C-5.79351515 5.33078345 -2.84916037 3.02224021 0 0 Z " fill="#1C6CE8" transform="translate(481,75)"/>
<path d="M0 0 C0 0.66 0 1.32 0 2 C-0.58007812 2.30292969 -1.16015625 2.60585937 -1.7578125 2.91796875 C-6.66195836 5.54807998 -10.85823175 8.28302849 -15 12 C-15.66 11.67 -16.32 11.34 -17 11 C-12.81074473 6.56431795 -6.58382032 0 0 0 Z " fill="#2290EF" transform="translate(745,131)"/>
<path d="M0 0 C0.66 0.33 1.32 0.66 2 1 C1.60167969 1.61746094 1.20335937 2.23492187 0.79296875 2.87109375 C-2.68160678 8.42534222 -5.25969078 13.67992966 -7 20 C-7.33 20 -7.66 20 -8 20 C-7.62602864 12.14660142 -5.68799465 5.68799465 0 0 Z " fill="#206EE7" transform="translate(527,105)"/>
<path d="M0 0 C-4.99385521 3.32923681 -10.38098156 5.89286808 -16 8 C-16 7.34 -16 6.68 -16 6 C-10.95852413 1.58727962 -6.70844298 -0.85639698 0 0 Z " fill="#2774E9" transform="translate(1031,91)"/>
<path d="M0 0 C0.81210937 0.24556641 0.81210937 0.24556641 1.640625 0.49609375 C4.40222593 1.08590587 6.92818139 1.09609308 9.75 1.0625 C10.73484375 1.05347656 11.7196875 1.04445313 12.734375 1.03515625 C13.48203125 1.02355469 14.2296875 1.01195313 15 1 C15 1.66 15 2.32 15 3 C10.74897771 5.12551114 5.32682977 4.43325054 0.9375 3 C0.298125 2.67 -0.34125 2.34 -1 2 C-0.67 1.34 -0.34 0.68 0 0 Z " fill="#1D6EE7" transform="translate(966,81)"/>
<path d="M0 0 C0.33 1.32 0.66 2.64 1 4 C1.66 4 2.32 4 3 4 C3.95261487 8.76307437 4.08333357 13.1666528 4 18 C0.4317767 12.64766505 -0.32665309 6.36973531 0 0 Z " fill="#1867E9" transform="translate(289,107)"/>
<path d="M0 0 C0.66 0.33 1.32 0.66 2 1 C2.5625 2.92578125 2.5625 2.92578125 3 5.3125 C3.59749231 8.54002544 4.41655361 11.11680802 6 14 C3.625 13.125 3.625 13.125 1 11 C-0.1127668 7.7258977 -0.74046344 4.44812856 -1 1 C-0.67 0.67 -0.34 0.34 0 0 Z " fill="#208DEC" transform="translate(808,155)"/>
<path d="M0 0 C0.66 0.66 1.32 1.32 2 2 C1.60167969 2.50789063 1.20335937 3.01578125 0.79296875 3.5390625 C-2.28566175 7.53903498 -4.91595614 11.36879143 -7 16 C-8 13 -8 13 -7.29296875 11.0625 C-6.74576172 10.0415625 -6.74576172 10.0415625 -6.1875 9 C-5.83042969 8.319375 -5.47335937 7.63875 -5.10546875 6.9375 C-4.14192431 5.24874367 -3.07850549 3.61775824 -2 2 C-1.34 2 -0.68 2 0 2 C0 1.34 0 0.68 0 0 Z " fill="#1D6CE7" transform="translate(1112,102)"/>
<path d="M0 0 C4.80601986 2.79059218 9.39218947 5.8980099 14 9 C11 10 11 10 8.80859375 8.92578125 C8.02613281 8.39339844 7.24367188 7.86101562 6.4375 7.3125 C5.65246094 6.79300781 4.86742187 6.27351562 4.05859375 5.73828125 C1.93321591 3.94360736 1.02964585 2.55463485 0 0 Z " fill="#186AE8" transform="translate(906,166)"/>
<path d="M0 0 C0.33 0.99 0.66 1.98 1 3 C-0.27007214 3.9593419 -1.54108919 4.91743294 -2.8125 5.875 C-3.87404297 6.67550781 -3.87404297 6.67550781 -4.95703125 7.4921875 C-6.60456297 8.70814781 -8.29624211 9.86416141 -10 11 C-10 8 -10 8 -8.57421875 6.46484375 C-7.95160156 5.96082031 -7.32898438 5.45679688 -6.6875 4.9375 C-6.07261719 4.43089844 -5.45773437 3.92429688 -4.82421875 3.40234375 C-3.26414544 2.20305827 -1.63728268 1.09152179 0 0 Z " fill="#186BE7" transform="translate(381,133)"/>
<path d="M0 0 C2.63822024 3.10378852 3.70365731 5.81462924 4.6875 9.75 C4.93886719 10.73484375 5.19023438 11.7196875 5.44921875 12.734375 C5.72185547 13.85585937 5.72185547 13.85585937 6 15 C5.01 15.495 5.01 15.495 4 16 C3.32815382 13.89748139 2.66269032 11.79292237 2 9.6875 C1.443125 7.92986328 1.443125 7.92986328 0.875 6.13671875 C0 3 0 3 0 0 Z " fill="#1C6CE8" transform="translate(566,103)"/>
<path d="M0 0 C1.98 0.495 1.98 0.495 4 1 C3.67 5.29 3.34 9.58 3 14 C2.67 14 2.34 14 2 14 C2 10.7 2 7.4 2 4 C1.01 4 0.02 4 -1 4 C-0.67 2.68 -0.34 1.36 0 0 Z " fill="#1A6CE8" transform="translate(1210,163)"/>
<path d="M0 0 C0.33 0 0.66 0 1 0 C1.3125 2.25 1.3125 2.25 1 5 C-1.75253132 7.99540173 -3.22687285 8.94165078 -7.3125 9.25 C-8.199375 9.1675 -9.08625 9.085 -10 9 C-7.3144406 6.3144406 -4.62378672 5.93950026 -1 5 C-0.67 3.35 -0.34 1.7 0 0 Z " fill="#2171E7" transform="translate(419,154)"/>
<path d="M0 0 C0.33 0.99 0.66 1.98 1 3 C-0.6188996 4.03048037 -2.24532489 5.04914678 -3.875 6.0625 C-4.77992188 6.63097656 -5.68484375 7.19945313 -6.6171875 7.78515625 C-7.40351563 8.18605469 -8.18984375 8.58695313 -9 9 C-9.66 8.67 -10.32 8.34 -11 8 C-9.92130607 7.03644756 -8.83681257 6.07938583 -7.75 5.125 C-6.84507812 4.32449219 -6.84507812 4.32449219 -5.921875 3.5078125 C-4.02581254 2.0202513 -2.18709995 0.99677564 0 0 Z " fill="#1F70E8" transform="translate(385,92)"/>
<path d="M0 0 C1.32 0.33 2.64 0.66 4 1 C4 2.65 4 4.3 4 6 C2.35 6.33 0.7 6.66 -1 7 C-1.33 6.34 -1.66 5.68 -2 5 C-1.0625 2.375 -1.0625 2.375 0 0 Z " fill="#3F81EC" transform="translate(1208,166)"/>
<path d="M0 0 C0.33 0 0.66 0 1 0 C0.58997722 10.55808656 0.58997722 10.55808656 -4 15 C-2.9318153 9.88634986 -1.76892524 4.92772031 0 0 Z " fill="#FEBD1B" transform="translate(205,119)"/>
<path d="M0 0 C0 0.99 0 1.98 0 3 C-0.515625 3.45375 -1.03125 3.9075 -1.5625 4.375 C-2.2740625 5.179375 -2.2740625 5.179375 -3 6 C-2.76956136 8.65466049 -2.76956136 8.65466049 -2 11 C-4 9.25 -4 9.25 -6 7 C-6 5.68 -6 4.36 -6 3 C-4.02 2.01 -2.04 1.02 0 0 Z " fill="#2070E9" transform="translate(925,123)"/>
<path d="M0 0 C0 0.66 0 1.32 0 2 C-2.31 2 -4.62 2 -7 2 C-7.66 3.32 -8.32 4.64 -9 6 C-9.99 6 -10.98 6 -12 6 C-11.67 5.01 -11.34 4.02 -11 3 C-10.34 3 -9.68 3 -9 3 C-9 2.34 -9 1.68 -9 1 C-6.04335481 -0.4783226 -3.25770263 -0.06032783 0 0 Z " fill="#1C68E9" transform="translate(599,146)"/>
<path d="M0 0 C3.34676814 1.03865218 4.02532602 2.04612953 5.75 5.1875 C7.16343391 8.82422724 7.23857902 12.10320937 7 16 C6.67 16 6.34 16 6 16 C5.90203125 15.43152344 5.8040625 14.86304687 5.703125 14.27734375 C4.63676081 8.77085969 3.01715751 4.7268801 0 0 Z " fill="#186AE8" transform="translate(1175,100)"/>
<path d="M0 0 C3.87302138 1.14430177 7.00263439 2.23320098 10 5 C10 5.66 10 6.32 10 7 C6.2089881 5.55049545 2.6125362 3.84827434 -1 2 C-0.67 1.34 -0.34 0.68 0 0 Z " fill="#2B77EA" transform="translate(1164,92)"/>
<path d="M0 0 C0.66 0 1.32 0 2 0 C3.65 3.96 5.3 7.92 7 12 C2.1421179 9.57105895 1.74843136 7.98302939 0 3 C0 2.01 0 1.02 0 0 Z " fill="#186EE7" transform="translate(322,85)"/>
<path d="M0 0 C3.97497544 3.40712181 5.86793788 7.32760855 8 12 C3.27820714 10.00613369 2.21821813 7.51565833 0 3 C0 2.01 0 1.02 0 0 Z " fill="#FEBD17" transform="translate(124,133)"/>
<path d="M0 0 C3.91211733 1.15585285 6.8745041 2.35534962 10 5 C9.67 5.66 9.34 6.32 9 7 C5.37 5.35 1.74 3.7 -2 2 C-1.34 1.34 -0.68 0.68 0 0 Z " fill="#2C92EC" transform="translate(783,92)"/>
<path d="M0 0 C0.66 0 1.32 0 2 0 C2 0.66 2 1.32 2 2 C0.35648543 3.36176922 -1.31522656 4.68962066 -3 6 C-4.68528688 7.64783606 -6.35697047 9.31002677 -8 11 C-7.52653165 6.73878485 -5.03860562 4.81626862 -2 2 C-1.34 1.34 -0.68 0.68 0 0 Z " fill="#FEC21B" transform="translate(132,78)"/>
<path d="M0 0 C0.33 0 0.66 0 1 0 C0.48594831 4.96916636 -0.23384882 9.29026351 -2 14 C-2.33 14 -2.66 14 -3 14 C-3.34615998 8.34605369 -2.43425238 4.96993194 0 0 Z " fill="#FEBE14" transform="translate(175,68)"/>
<path d="M0 0 C0.66 0.33 1.32 0.66 2 1 C-1.27708863 4.67033927 -4.71522208 6.69281189 -9 9 C-7.48328036 4.44984107 -3.83108947 2.49942736 0 0 Z " fill="#2272E6" transform="translate(539,94)"/>
<path d="M0 0 C4.43090471 1.20842856 6.98112756 2.51668565 10 6 C5.87248551 5.39301257 2.6678852 3.96189209 -1 2 C-0.67 1.34 -0.34 0.68 0 0 Z " fill="#2572E7" transform="translate(425,92)"/>
<path d="M0 0 C3 1 3 1 4.1875 2.6875 C5.19313465 5.54969093 5.13689641 7.98827908 5 11 C2.77174356 8.77174356 2.30760631 7.34238372 1.375 4.375 C1.11460937 3.55773437 0.85421875 2.74046875 0.5859375 1.8984375 C0.39257812 1.27195312 0.19921875 0.64546875 0 0 Z " fill="#1A8AED" transform="translate(767,100)"/>
<path d="M0 0 C2.70931419 0.15481795 4.46584039 0.48172081 6.4453125 2.40234375 C7.67679642 3.89771708 8.8429837 5.4462924 10 7 C9.34 7.66 8.68 8.32 8 9 C7.608125 8.2575 7.21625 7.515 6.8125 6.75 C4.86961158 3.80216929 2.83531533 2.06901389 0 0 Z " fill="#FDC122" transform="translate(203,56)"/>
<path d="M0 0 C9.17286652 -0.63019694 9.17286652 -0.63019694 12.625 2 C13.07875 2.66 13.5325 3.32 14 4 C11 4 11 4 8 2 C5.9507906 1.54860541 5.9507906 1.54860541 3.8125 1.375 C1.9253125 1.189375 1.9253125 1.189375 0 1 C0 0.67 0 0.34 0 0 Z " fill="#3174F3" transform="translate(1077,59)"/>
<path d="M0 0 C0.99 0.33 1.98 0.66 3 1 C3 1.66 3 2.32 3 3 C3.66 3 4.32 3 5 3 C6.35439668 5.70879335 6.06501451 8.00933268 6 11 C4.78483364 9.17725047 3.60668208 7.3280819 2.5 5.4375 C1.0902355 2.93582181 1.0902355 2.93582181 -1 1 C-0.67 0.67 -0.34 0.34 0 0 Z " fill="#2174E9" transform="translate(982,56)"/>
<path d="M0 0 C1.93681161 -0.08107583 3.8745934 -0.13922475 5.8125 -0.1875 C6.89144531 -0.22230469 7.97039063 -0.25710937 9.08203125 -0.29296875 C12 0 12 0 13.88671875 1.51171875 C14.25410156 2.00285156 14.62148438 2.49398437 15 3 C14.01 3.495 14.01 3.495 13 4 C11.66212411 3.34249689 10.32948552 2.6743074 9 2 C6.64435404 1.55188863 6.64435404 1.55188863 4.25 1.375 C3.45078125 1.30023438 2.6515625 1.22546875 1.828125 1.1484375 C1.22484375 1.09945312 0.6215625 1.05046875 0 1 C0 0.67 0 0.34 0 0 Z " fill="#2D6AF5" transform="translate(625,59)"/>
<path d="M0 0 C3.3 0 6.6 0 10 0 C7 3 7 3 4.95703125 3.07421875 C1.97851562 2.53710938 1.97851562 2.53710938 -1 2 C-0.67 1.34 -0.34 0.68 0 0 Z " fill="#1F70E8" transform="translate(1047,161)"/>
<path d="M0 0 C0.66 0 1.32 0 2 0 C3.32421875 1.64453125 3.32421875 1.64453125 4.6875 3.8125 C5.14511719 4.52019531 5.60273437 5.22789062 6.07421875 5.95703125 C7 8 7 8 6 11 C2.90407165 7.4912812 1.25805377 4.50802601 0 0 Z " fill="#1A6AE7" transform="translate(1136,140)"/>
<path d="M0 0 C-6.625 3.125 -6.625 3.125 -10 2 C-9.67 1.34 -9.34 0.68 -9 0 C-5.65506316 -0.99444068 -3.31044803 -1.10348268 0 0 Z " fill="#1D6FE7" transform="translate(1146,128)"/>
<path d="M0 0 C0 3.97054597 -1.3139381 5.16471244 -4 8 C-6.140625 8.6484375 -6.140625 8.6484375 -8 9 C-7.04270084 7.87411986 -6.08412105 6.7493285 -5.125 5.625 C-4.59132813 4.99851562 -4.05765625 4.37203125 -3.5078125 3.7265625 C-2.38567993 2.44163349 -1.20628025 1.20628025 0 0 Z " fill="#196BE7" transform="translate(1179,121)"/>
<path d="M0 0 C1.953125 0.7109375 1.953125 0.7109375 4 2 C4.609375 4.1640625 4.609375 4.1640625 4.75 6.625 C4.80671875 7.44226563 4.8634375 8.25953125 4.921875 9.1015625 C4.94765625 9.72804688 4.9734375 10.35453125 5 11 C3.33167423 8.49751135 2.37618326 6.58850813 1.375 3.8125 C1.11460937 3.09707031 0.85421875 2.38164063 0.5859375 1.64453125 C0.39257812 1.10183594 0.19921875 0.55914062 0 0 Z " fill="#1B6BE6" transform="translate(686,100)"/>
<path d="M0 0 C0.66 0.33 1.32 0.66 2 1 C-0.9905167 4.33557632 -3.93184627 6.15083921 -8 8 C-6.88333826 4.65001479 -6.25305075 4.20659778 -3.4375 2.3125 C-2.79683594 1.87550781 -2.15617187 1.43851562 -1.49609375 0.98828125 C-1.00238281 0.66214844 -0.50867187 0.33601563 0 0 Z " fill="#246FE9" transform="translate(1122,94)"/>
<path d="M0 0 C0.66 0.33 1.32 0.66 2 1 C2 1.66 2 2.32 2 3 C-0.90548882 5.04169485 -2.40142046 6 -6 6 C-5 3 -5 3 -2.5625 1.25 C-1.716875 0.8375 -0.87125 0.425 0 0 Z " fill="#249BEF" transform="translate(740,93)"/>
<path d="M0 0 C0.33 0 0.66 0 1 0 C0.67 2.64 0.34 5.28 0 8 C-0.66 8 -1.32 8 -2 8 C-1.125 1.125 -1.125 1.125 0 0 Z M-3 8 C-2.67 8 -2.34 8 -2 8 C-2 9.65 -2 11.3 -2 13 C-2.33 13 -2.66 13 -3 13 C-3 11.35 -3 9.7 -3 8 Z " fill="#1B6BE6" transform="translate(292,84)"/>
<path d="M0 0 C2.37948772 0.17625835 3.70225849 0.69719773 5.37890625 2.40234375 C6.62115486 3.90649092 7.81376056 5.45129851 9 7 C5.07353523 5.69117841 2.72225079 4.1255472 0 1 C0 0.67 0 0.34 0 0 Z " fill="#256EE9" transform="translate(677,91)"/>
<path d="M0 0 C3.67420866 0.30618405 4.78135513 0.75771784 7.3125 3.5625 C8.1478125 4.7690625 8.1478125 4.7690625 9 6 C4.75177626 5.52797514 2.80010291 3.03344482 0 0 Z " fill="#1F71EA" transform="translate(346,69)"/>
<path d="M0 0 C2.97 0 5.94 0 9 0 C5.71299843 1.64350079 3.52069985 2.41321669 0 3 C0 2.01 0 1.02 0 0 Z " fill="#357DE8" transform="translate(1187,164)"/>
<path d="M0 0 C2.64 0 5.28 0 8 0 C8.33 0.66 8.66 1.32 9 2 C4.545 2.495 4.545 2.495 0 3 C0 2.01 0 1.02 0 0 Z " fill="#3B80EB" transform="translate(1136,137)"/>
<path d="M0 0 C0.66 0 1.32 0 2 0 C2 1.98 2 3.96 2 6 C1.01 6.33 0.02 6.66 -1 7 C-1.04254356 5.00045254 -1.04080783 2.99958364 -1 1 C-0.67 0.67 -0.34 0.34 0 0 Z " fill="#196DE7" transform="translate(1101,132)"/>
<path d="M0 0 C3.77545388 1.09068668 6.47043472 1.9083091 9 5 C8.01 5.33 7.02 5.66 6 6 C2.8125 3.625 2.8125 3.625 0 1 C0 0.67 0 0.34 0 0 Z " fill="#1A65E9" transform="translate(329,100)"/>
<path d="M0 0 C-3.68734758 2.45823172 -6.69699971 3.01242616 -11 4 C-7.65667474 -0.27945633 -5.29105716 -0.4070044 0 0 Z " fill="#377DEA" transform="translate(1136,91)"/>
<path d="M0 0 C5.57142857 5.14285714 5.57142857 5.14285714 6 9 C1.2 5.67692308 1.2 5.67692308 0.1875 2.25 C0.125625 1.5075 0.06375 0.765 0 0 Z " fill="#196BE6" transform="translate(1107,157)"/>
<path d="M0 0 C2.52349243 3.12432397 4.27256146 6.38060496 6 10 C3.13367003 8.94901234 2.16993357 8.33137046 0.75 5.5625 C0 3 0 3 0 0 Z " fill="#176AE8" transform="translate(521,151)"/>
<path d="M0 0 C0.66 0 1.32 0 2 0 C2 1.98 2 3.96 2 6 C0.68 5.34 -0.64 4.68 -2 4 C-2 3.34 -2 2.68 -2 2 C-1.34 2 -0.68 2 0 2 C0 1.34 0 0.68 0 0 Z " fill="#FEBE1C" transform="translate(170,83)"/>
</svg>
