<?xml version="1.0" encoding="UTF-8"?>
<svg version="1.1" xmlns="http://www.w3.org/2000/svg" width="484" height="360">
<path d="M0 0 C2.81574473 2.06326122 5.11833205 3.89935103 7.265625 6.66015625 C7.265625 7.32015625 7.265625 7.98015625 7.265625 8.66015625 C7.925625 8.66015625 8.585625 8.66015625 9.265625 8.66015625 C10.23710551 10.46564362 11.19209011 12.28000926 12.140625 14.09765625 C12.67429687 15.10699219 13.20796875 16.11632812 13.7578125 17.15625 C25.01310252 43.31167785 13.54261326 78.25667159 7.91625977 104.49829102 C7.31546557 107.41794793 6.78776623 110.33947185 6.28515625 113.27734375 C5.25175193 119.07864359 3.70824673 124.68908318 2.078125 130.34765625 C1.77060303 131.42563477 1.46308105 132.50361328 1.14624023 133.61425781 C0.50535944 135.8566062 -0.13780114 138.09830421 -0.78320312 140.33935547 C-1.69324257 143.51655169 -2.58344429 146.69864946 -3.46875 149.8828125 C-6.95420089 162.29385721 -11.04492759 174.29673167 -15.79980469 186.27636719 C-16.96652469 189.25229563 -18.07237472 192.24846459 -19.17382812 195.24902344 C-21.3964945 201.29897043 -23.79419373 207.2157772 -26.5390625 213.05078125 C-27.76299629 215.72263671 -28.84224725 218.42711256 -29.921875 221.16015625 C-34.87540308 233.11425398 -40.74584481 246.19417526 -49.734375 255.66015625 C-50.32347656 256.28921875 -50.91257812 256.91828125 -51.51953125 257.56640625 C-57.93568894 263.78494101 -66.11811876 267.79520562 -75.109375 268.28515625 C-86.98982466 267.63464172 -96.78422436 262.08430015 -105.734375 254.66015625 C-106.33942871 254.16435059 -106.94448242 253.66854492 -107.56787109 253.15771484 C-109.52933124 251.54524113 -111.47843846 249.91929839 -113.421875 248.28515625 C-114.35966797 247.49902954 -114.35966797 247.49902954 -115.31640625 246.69702148 C-116.82907505 245.39654179 -118.2873212 244.033273 -119.734375 242.66015625 C-119.734375 242.00015625 -119.734375 241.34015625 -119.734375 240.66015625 C-120.394375 240.66015625 -121.054375 240.66015625 -121.734375 240.66015625 C-121.734375 240.00015625 -121.734375 239.34015625 -121.734375 238.66015625 C-122.270625 238.45390625 -122.806875 238.24765625 -123.359375 238.03515625 C-126.65415509 236.12765199 -129.32801128 233.61196241 -131.734375 230.66015625 C-131.734375 230.00015625 -131.734375 229.34015625 -131.734375 228.66015625 C-132.32605469 228.39460937 -132.91773438 228.1290625 -133.52734375 227.85546875 C-139.27605964 224.74200492 -143.53757937 218.82725115 -147.7421875 213.921875 C-149.18086827 212.28854918 -150.66043079 210.69092423 -152.1640625 209.1171875 C-157.78681785 203.20921992 -162.82263546 197.08122477 -167.609375 190.47265625 C-168.14449707 189.7367627 -168.67961914 189.00086914 -169.23095703 188.24267578 C-172.79413197 183.23904466 -175.86596316 178.08886874 -178.734375 172.66015625 C-179.08886719 171.9952417 -179.44335938 171.33032715 -179.80859375 170.64526367 C-193.04714355 145.52296795 -198.79632085 118.51560933 -191.734375 90.66015625 C-191.40953125 89.29117188 -191.40953125 89.29117188 -191.078125 87.89453125 C-188.82475751 79.36392574 -184.61712997 71.25597243 -178.734375 64.66015625 C-177.99960938 63.77457031 -177.99960938 63.77457031 -177.25 62.87109375 C-166.71193219 50.35109576 -155.58460202 42.84822436 -139.734375 38.66015625 C-139.08082031 38.46550781 -138.42726563 38.27085938 -137.75390625 38.0703125 C-122.71481677 35.01595197 -107.4643117 39.84484683 -94.734375 47.66015625 C-88.37764247 52.55123898 -83.18462833 57.98477625 -78.734375 64.66015625 C-78.63640625 63.89574219 -78.5384375 63.13132812 -78.4375 62.34375 C-75.23126308 39.37493205 -67.77099418 18.30934106 -48.81640625 3.7109375 C-34.65656403 -5.71101074 -15.18022109 -9.17319074 0 0 Z " fill="#FFBB0C" transform="translate(400.734375,31.33984375)"/>
<path d="M0 0 C1.11460602 -0.00571014 2.22921204 -0.01142029 3.37759399 -0.01730347 C4.60619644 -0.01842133 5.83479889 -0.01953918 7.10063171 -0.02069092 C8.39011719 -0.02565582 9.67960266 -0.03062073 11.00816345 -0.03573608 C14.55165564 -0.04886871 18.09512887 -0.05530685 21.6386416 -0.05974674 C23.85216735 -0.06267641 26.0656879 -0.06678105 28.27921104 -0.07125092 C35.20382994 -0.08492885 42.12843699 -0.09459374 49.05306846 -0.09845281 C57.04819451 -0.10293279 65.04314952 -0.12047656 73.03822356 -0.1494534 C79.21663842 -0.17106907 85.39500515 -0.18115704 91.57345742 -0.18249393 C95.26416003 -0.18354215 98.95470194 -0.18945339 102.64536476 -0.20731354 C106.76337179 -0.22685346 110.88102098 -0.22250573 114.99906921 -0.21600342 C116.83286385 -0.22982559 116.83286385 -0.22982559 118.70370483 -0.243927 C120.38830307 -0.23557327 120.38830307 -0.23557327 122.10693359 -0.22705078 C123.08051473 -0.22851734 124.05409586 -0.2299839 125.05717945 -0.2314949 C128.28052152 0.2147222 130.13001352 1.22598234 132.74394226 3.14044189 C135.08303533 6.6490815 135.15685283 8.01133622 134.74394226 12.14044189 C133.01979234 15.93357172 131.59540649 17.63103185 127.74394226 19.14044189 C125.17298985 19.40050411 125.17298985 19.40050411 122.20941162 19.41459656 C121.08364212 19.42457169 119.95787262 19.43454681 118.79798889 19.44482422 C117.56722626 19.44548889 116.33646362 19.44615356 115.06840515 19.44683838 C113.76887405 19.4551619 112.46934296 19.46348541 111.13043213 19.47206116 C107.56845475 19.49399003 104.00656321 19.50280259 100.44452596 19.5078876 C98.21858596 19.51153239 95.99266842 19.51777301 93.76673698 19.52488899 C85.99976998 19.54937568 78.23286972 19.56243417 70.46586609 19.565979 C63.22776735 19.56961606 55.99009217 19.59952519 48.75212294 19.64138359 C42.5354403 19.67607448 36.31889817 19.69152721 30.10211939 19.69222504 C26.39009736 19.69301813 22.67850711 19.70177097 18.96658516 19.7302227 C14.82704363 19.76124377 10.6885126 19.75234969 6.5488739 19.73980713 C5.3201355 19.75464142 4.09139709 19.76947571 2.82542419 19.78475952 C-6.41568634 19.70481291 -6.41568634 19.70481291 -9.51705933 16.74775696 C-11.83122939 13.27807555 -11.91187968 11.27753234 -11.68965149 7.23028564 C-11.06375493 4.21357702 -9.7341487 2.88968257 -7.25605774 1.14044189 C-4.69251415 -0.1413299 -2.87133121 0.00878322 0 0 Z " fill="#FFBF1A" transform="translate(58.25605773925781,157.85955810546875)"/>
<path d="M0 0 C0.93921295 -0.0071553 1.8784259 -0.01431061 2.84609985 -0.02168274 C3.8695752 -0.02437164 4.89305054 -0.02706055 5.94754028 -0.02983093 C7.03088654 -0.03640213 8.11423279 -0.04297333 9.23040771 -0.04974365 C12.81596953 -0.06945743 16.40148956 -0.08113343 19.98709106 -0.09111023 C21.21158085 -0.09518576 22.43607063 -0.09926128 23.69766617 -0.10346031 C30.17548707 -0.12431024 36.65328684 -0.13861813 43.13113403 -0.147995 C48.49517159 -0.15606389 53.85898584 -0.17721304 59.22293091 -0.20951843 C65.69849614 -0.24789861 72.17383454 -0.26675394 78.64950943 -0.27127647 C81.11747608 -0.27615164 83.58543896 -0.28779192 86.05334091 -0.30631447 C89.50532215 -0.33061791 92.95643749 -0.3297568 96.40847778 -0.32279968 C97.9376181 -0.34201477 97.9376181 -0.34201477 99.49765015 -0.36161804 C105.40232532 -0.31822399 108.81640524 0.19496473 113.30740356 4.14717102 C115.0311113 7.59458649 114.81047028 11.37752441 114.30740356 15.14717102 C112.43119743 17.6487792 111.06849053 18.76662754 108.30740356 20.14717102 C106.77296959 20.2458464 105.23432557 20.28221344 103.69673157 20.28761292 C102.72516617 20.29332306 101.75360077 20.2990332 100.75259399 20.30491638 C99.6829541 20.30603424 98.61331421 20.3071521 97.51126099 20.30830383 C95.82574883 20.31575119 95.82574883 20.31575119 94.10618591 20.323349 C90.37507523 20.3379985 86.64400707 20.34477736 82.91287231 20.35029602 C80.32696023 20.35604528 77.74104816 20.36180304 75.15513611 20.36756897 C70.42141533 20.37674136 65.68771163 20.38303837 60.95398349 20.38606572 C53.98837567 20.39054488 47.02296424 20.40808506 40.05741614 20.43706632 C34.02393946 20.46129753 27.99055561 20.46901055 21.95702553 20.47074127 C19.39055627 20.4737723 16.82408793 20.48181588 14.25765038 20.49492645 C10.66885824 20.51195046 7.08054569 20.51011529 3.49172974 20.50361633 C1.89637894 20.51743851 1.89637894 20.51743851 0.26879883 20.53153992 C-8.80671238 20.47996683 -8.80671238 20.47996683 -12.69259644 17.14717102 C-14.57304278 14.070077 -14.69373846 12.21226626 -14.63009644 8.58467102 C-13.50159786 4.44684291 -12.31684532 3.33857732 -8.69259644 1.14717102 C-5.75042917 0.21750115 -3.07639313 0.01614214 0 0 Z " fill="#FFC224" transform="translate(104.69259643554688,219.8528289794922)"/>
<path d="M0 0 C0.9778093 -0.00525696 1.95561859 -0.01051392 2.96305847 -0.01593018 C6.19103022 -0.02911984 9.41850772 -0.02039553 12.64648438 -0.01025391 C14.89180598 -0.01227493 17.13712694 -0.01518661 19.38244629 -0.01895142 C24.08657078 -0.02337338 28.7905243 -0.01694767 33.49462891 -0.00292969 C39.52400573 0.01416194 45.55298193 0.0043201 51.58234406 -0.01364708 C56.21831276 -0.02448825 60.85418651 -0.021037 65.49015808 -0.0132637 C67.71331327 -0.01126263 69.93647708 -0.01371771 72.15962219 -0.02070236 C75.26680334 -0.02832212 78.3733359 -0.01670476 81.48046875 0 C82.85835823 -0.00910904 82.85835823 -0.00910904 84.26408386 -0.0184021 C90.33797889 0.04208446 93.82902676 0.97697598 98.24023438 5.38818359 C98.64648438 7.37646484 98.64648438 7.37646484 98.74023438 9.70068359 C98.79179687 10.45994141 98.84335938 11.21919922 98.89648438 12.00146484 C98.07622651 14.98466459 96.56047917 16.41373123 94.17061043 18.31591415 C90.4079522 20.40596465 86.39013001 20.0807571 82.18334961 20.03515625 C81.18588715 20.04391785 80.18842468 20.05267944 79.16073608 20.06170654 C75.87298728 20.08366246 72.58658992 20.06916158 69.29882812 20.05224609 C67.01009361 20.05561503 64.72136084 20.0604683 62.43263245 20.06674194 C57.64021744 20.07410793 52.84826892 20.06341499 48.0559082 20.04003906 C41.91310011 20.01153604 35.77138353 20.02796771 29.62861538 20.05790138 C24.9042386 20.07596758 20.18012072 20.07021956 15.45573616 20.05726242 C13.19071384 20.0539274 10.925668 20.0580188 8.66067314 20.06966019 C5.49572326 20.08235885 2.33254268 20.06300457 -0.83227539 20.03515625 C-2.23586052 20.05033798 -2.23586052 20.05033798 -3.6678009 20.06582642 C-8.23036979 19.99144652 -10.13728541 19.88083088 -13.82164001 16.9649353 C-16.67802542 13.16735071 -16.67802542 13.16735071 -16.75976562 10.38818359 C-15.66802682 4.16527239 -15.66802682 4.16527239 -12.78381348 1.69760132 C-8.49027925 -0.16150611 -4.63222592 -0.03062301 0 0 Z " fill="#FFBF1A" transform="translate(99.759765625,94.61181640625)"/>
<path d="M0 0 C-1.5159375 0.7425 -1.5159375 0.7425 -3.0625 1.5 C-6.99081153 3.71862129 -9.51853098 6.60896096 -12.32421875 10.09765625 C-14.05455438 12.06193003 -15.86006973 13.50344746 -18 15 C-16.51604921 11.65920823 -14.60554454 9.16993656 -12.1875 6.4375 C-11.52105469 5.67308594 -10.85460937 4.90867187 -10.16796875 4.12109375 C-4.44230769 -1.48076923 -4.44230769 -1.48076923 0 0 Z " fill="#FFD773" transform="translate(360,33)"/>
</svg>
